<svg width="424" height="177" viewBox="0 0 424 177" xmlns="http://www.w3.org/2000/svg"><title>Logo</title><g fill="#FDFFE7" fill-rule="evenodd"><path d="M301.4 80.917c3.865 13.098 15.018 35.48 15.48 35.907 2.223 2.052 8.07 2.987 13.48 2.152 3.172-.49 3.455-.583 4.248-1.39 2.2-2.24 2.834-12.137 1.613-25.204-.436-4.686-.237-5.58.68-3.044.556 1.534 3.235 6.095 5.024 8.55 3.735 5.128 8.69 8.51 13.07 8.956 19.28 1.957 19.6-12.558 13.502-17.326 0 0-.42 10.19-6.21 7.374-9.27-4.51-12.917-18.725-17.733-37.585-.965-3.778-2.207-8.164-2.76-9.746-.933-2.663-1.117-2.97-2.5-4.177-2.8-2.447-6.937-3.29-10.744-2.188-2.663.77-3.673 1.712-3.908 3.644-.348 2.86 1.16 11.11 3.376 18.46 3.43 11.38 4.576 40.433 1.663 42.164-.775.46-1.94-.17-3.122-1.687-.844-1.086-1.692-3.037-4.24-9.755-5.176-13.647-8.91-26.855-10.723-37.94-.46-2.8-.986-5.507-1.172-6.022-.794-2.196-4.246-4.082-8.266-4.517-4.163-.45-6.7.497-6.9 2.576-.417 4.328 2.194 17.422 6.142 30.797z"/><path d="M257.33 133.357c-.61 3.95 6.472 3.156 6.472 3.156l1.615.774c2.944 1.41 6.89 1.752 10.726.926 1.698-.366 2.245-.62 2.82-1.32 2.404-2.922 3.773-11.545 4.143-26.11l.15-5.952 1.07 2.644c7.132 17.63 17.737 28.345 26.383 25.49 7.894-2.606 11.532-13.788 9.566-19.65-1.365-4.068-7.705-4.112-7.755-3.016-.565 12.445-1.79 27.16-9.547 2.967-.78-2.43-1.515-3.127-3.333-10.54-2.034-8.293-2.356-10.058-5.13-28.108-.884-5.762-1.76-11.09-1.946-11.843-.445-1.8-2.105-3.29-5.064-4.543-5.918-2.506-9.395-1.873-10.894 1.986l-.61 1.572-1.348-.69c-.752-.387-2.2-.86-3.278-1.073-1.72-.34-2.306-.288-5.364.47-2.746.68-3.804 1.09-5.288 2.05-9.534 6.18-12.96 19.618-10.363 40.652.855 6.925 4.533 21.814 6.2 25.098l1.193 2.348-.42 2.714zm14.53-66.734c.425.164 1.37 1.07 2.125 2.04 1.343 1.725 1.362 1.778 1.652 4.482.392 3.67 1.416 9.845 2.095 12.632.606 2.49.844 8.25.795 19.233-.08 17.633-1.28 25.213-3.89 24.56-1.997-.5-3.572-4.34-5.54-13.5-3.586-16.692-4.726-32.955-2.968-42.322.967-5.164 3.296-8.06 5.73-7.125z"/><path d="M202.37 31.97c-17.02 74.52-5.172 109.358-3.74 110.512 2.563 2.067 4.57 2.66 8.032 2.372 3.49-.29 3.44-.157 2.812-7.22-.843-9.502.047-19.223 2.98-32.553 2.717-12.34 7.94-26.34 10.157-27.223 1.22-.486 1.288.6.778 12.585-.602 14.122-.508 19.92.435 27.043 2.675 20.2 10.197 28.38 22.325 28.672 10.41.25 15.688-9.007 17.188-12.084 2.92-5.99-7.147-8.118-7.147-8.118-1.155 3.828-.59 10.492-5.393 11.252-3.302.524-12.093-.817-8.21-49.648.82-10.323-.328-11.8-3.553-14.337-3.076-2.42-7.47-3.523-13.036-3.272-3.12.142-3.337.195-4.413 1.08-2.89 2.37-6.394 8.133-9.682 15.92-1.836 4.35-5.155 14.108-6.252 18.38-.942 3.678-1.28 4.225-1.272 2.067.004-.887-.084-3.344-.195-5.46-.948-18.123 10.07-53.18 15.713-67.743 2.473-6.382 4.2-8.684 7.698-10.255 1.45-.654 1.626-.838 1.545-1.63-.206-1.984-3.365-2.85-9.145-2.503-3.116.187-4.406.415-6.73 1.187-5.998 1.995-9.368 4.29-10.896 10.977z"/><path d="M179.64 19.11c-2.073.552-2.934 1.182-3.876 2.836-3.114 5.47-9.75 37.275-12.703 59.046-.412 3.04-1.082 9.915-1.487 15.258-.79 10.437-3.085 42.534 6.574 46.593 11.796 4.958 26.187-12.958 28.147-16.152 0 0 1.802-14.705 1.025-12.143-3.315 10.932-17.112 19.284-20.44 17.167-4.204-2.672-3.593-12.957-1.48-31.29 2.59-22.454 8.43-50.805 14.337-66.796 2.155-5.835 2.264-6.625 1.15-8.38-2.586-4.07-7.973-7.01-11.247-6.138z"/><path d="M166.17 120.134c.63-2.225-3.18-11.407-3.802-8.6-1.258 5.688-7.908 15.15-16.814 13.932-6.53-.895-11.7-5.144-13.99-12.404-1.117-3.546-1.21-3.338 1.54-3.497 9.816-.565 19.848-11.485 23.26-25.317 1.608-6.522 1.608-14.044 0-18.26-1.545-4.05-4.028-5.92-8.564-6.444-2.747-.318-3.85.226-4.755 2.346-.61 1.426-.65 1.455-1.934 1.34-2.015-.182-5.697.554-8.05 1.61-7.71 3.452-18.45 24.63-17.453 40.266 1.58 24.813 12.082 29.634 18.256 31.93 12.646 4.707 29.083-5.53 32.307-16.902zm-20.95-48.386c1.11 5.804-.752 15.39-4.183 21.556-2.697 4.845-7.387 9.326-10.22 9.765l-.95.146.727-6.022c1.658-13.732 6.115-23.996 11.65-26.835 2.227-1.142 2.52-1.005 2.977 1.388z"/><path d="M125.383 102.94c.735-2.193-2.636-11.546-3.39-8.772-1.526 5.622-8.617 14.758-17.455 13.117-6.482-1.203-11.443-5.694-13.385-13.053-.95-3.596-1.05-3.393 1.704-3.42 9.83-.1 20.37-10.53 24.433-24.184 1.916-6.438 2.273-13.952.866-18.24-1.35-4.118-3.742-6.103-8.248-6.843-2.73-.45-3.857.043-4.86 2.117-.677 1.396-.72 1.423-1.996 1.246-2.005-.277-5.718.283-8.12 1.225C87.07 49.216 75.337 69.86 75.59 85.526c.4 24.86 10.662 30.174 16.72 32.763 12.41 5.3 29.314-4.143 33.073-15.35zm-18.63-49.328c.83 5.85-1.482 15.338-5.2 21.333-2.925 4.712-7.822 8.965-10.674 9.27l-.956.1 1.012-5.98c2.307-13.638 7.246-23.68 12.91-26.25 2.278-1.035 2.565-.884 2.907 1.527z"/><path d="M60.212 31.473c-.677.496-1.113 2.69-1.142 5.736-.01 1.12-.26 3.674-.55 5.627-2.08 14.038-7.803 27.647-15.092 35.888l-1.962 2.218-1.89-1.125c-1.03-.612-2.422-1.284-3.053-1.473-1.792-.535-5.348-.738-6.868-.393l-1.36.31L28.1 67.47c-.245-13.476-.938-19.71-2.562-23.044-1.257-2.58-6.898-6.143-11.576-7.313-2.986-.747-6.763-.538-7.73.427-.96.96-.875 1.82.7 7.052 3.435 11.4 4.582 22.546 4.242 41.218-.28 15.296-1.39 25.723-3.753 35.26-1.574 6.356-4.492 12.734-6.73 14.708-1.61 1.42-.305 5.255 2.87 8.433 3.004 3.01 6.952 4.67 11.1 4.67 1.79 0 1.943-.065 2.9-1.226 3.807-4.62 7.58-23.54 9.41-47.177.237-3.046.504-5.604.595-5.695.092-.092.747-.004 1.476.2.717.198 2.772.378 4.53.396l3.218.033 1.01 2.385c2.266 5.346 55.044 75.582 170.39 78.948 102.57 2.993 157.517-34.802 201.885-58.278 13.31-7.042 17.815-38.677 9.932-32.977-51.686 37.358-126.763 81.06-230.487 73.368C95.263 151.866 46.252 95.22 48.9 90.51l-.666-1.29 4.214-4.19c4.596-4.574 7.993-8.92 11.445-14.648 5.388-8.938 8.76-19.058 8.76-26.287 0-3.176-1.03-5.198-4.313-8.475-3.384-3.377-6.802-5.12-8.128-4.147z"/><path d="M341.3 1.54c-1.64 1.383-2.15 2.32-2.296 4.22-.485 6.276 3.21 20.256 9.82 41.206.923 2.927 3.247 9.43 5.158 14.435 3.733 9.778 15.338 39.788 25.803 39.335 12.784-.553 18.35-22.612 18.76-26.338 0 0-5.802-10.466-11.448-10.1 1.662 11.304-.24 23.137-4.155 22.644-4.943-.622-8.77-10.183-14.676-27.67-7.227-21.412-10.17-31.927-11.644-48.91-.54-6.2-.778-6.96-2.533-8.07-4.074-2.578-10.2-2.937-12.79-.75z"/></g></svg>