<svg viewBox="0 0 430 170" xmlns="http://www.w3.org/2000/svg" fill-rule="evenodd" clip-rule="evenodd" stroke-linejoin="round" fill="#fdffe7" stroke-miterlimit="1.414"><path d="M114.64 38.21l.24.005.237.008.235.01.24.013.23.015.233.02.235.02.23.023.233.026.23.028.23.03.232.035.227.037.228.04.225.042.228.045.225.048.223.05.224.054.222.055.224.06.22.062.22.066.217.067.216.07.218.075.214.076.215.08.212.084.21.085.21.088.208.09.205.094.208.1.205.1.2.102.202.107.198.11.198.112.196.115.194.118.19.12.193.126.186.127.188.13.18.13.183.136.18.14.18.14.177.148.172.146.17.15.17.153.163.15.163.16.16.16.158.162.154.163.154.17.152.172.144.17.144.175.142.177.138.18.135.18.134.187.13.186.126.19.122.19.117.186.116.192.114.196.113.204.106.198.104.198.1.202.097.205.095.206.09.21.085.204.083.207.08.213.078.213.072.208.07.21.066.218.062.21.06.22.055.214.053.217.05.215.046.222.042.216.04.22.036.224.032.214.03.226.026.22.023.222.02.216.017.223.013.225.01.22.008.22.005.224v.446l-.006.22-.01.22-.01.226-.015.223-.017.22-.02.224-.022.218-.026.216-.028.22-.03.22-.036.226-.037.22-.04.22-.043.217-.046.22-.047.22-.05.217-.052.213-.056.222-.058.213-.063.223-.063.217-.065.21-.07.22-.07.21-.075.217-.076.214-.08.22-.082.21-.084.212-.086.212-.088.21-.092.213-.094.212-.098.215-.097.206-.1.205-.105.214-.103.202-.11.21-.11.21-.113.207-.115.207-.116.203-.12.208-.12.2-.128.21-.123.196-.128.2-.134.207-.132.2-.14.21-.135.194-.14.2-.144.202-.143.197-.15.2-.15.2-.147.19-.15.193-.157.197-.163.2-.164.197-.157.188-.165.194-.167.193-.168.19-.173.192-.174.192-.178.19-.177.19-.183.19-.182.187-.185.188-.183.183-.193.19-.192.185-.195.186-.196.182-.193.18-.202.184-.204.183-.203.178-.206.18-.21.182-.208.175-.214.18-.217.177-.217.176-.22.177-.226.177-.222.172-.228.174-.232.176-.233.173-.228.167-.24.174-.238.17-.197.137-.21.148-.213.146-.224.153-.227.154-.246.167-.246.165-.253.167-.27.18-.27.174-.282.185-.287.186-.295.19-.3.19-.31.196-.31.195-.325.202-.326.2-.33.202-.344.208-.34.205-.35.208-.355.21-.36.21-.36.21-.368.212-.375.213-.377.212-.375.21-.38.208-.393.214-.387.208-.39.207-.394.206-.397.206-.4.204-.404.203-.403.198-.407.198-.408.195-.403.19-.214.1-.2.09-.212.096-.2.09-.21.094-.21.09-.202.09-.214.09-.21.09-.207.087-.204.084-.208.086-.213.086-.206.08-.21.083-.214.082-.203.077-.21.078-.212.077-.21.075-.213.074-.21.07-.214.074-.212.07-.212.068-.218.068-.212.065-.213.064-.217.062-.21.06-.22.06-.214.055-.22.056-.22.053-.22.052-.217.05-.223.047-.22.044-.224.042-.226.04-.227.04-.225.034-.23.033-.232.03-.23.026-.19.02-2.563-.253-2.198-1.18-1.432-1.71-.004.05-.017.21-.015.21-.013.214-.012.21-.01.21-.008.205-.006.207-.004.207-.002.207v.409l.004.203.005.202.006.202.01.203.01.198.01.2.015.197.015.198.018.198.02.197.02.193.023.19.025.195.026.19.028.19.03.19.032.188.033.187.035.184.037.185.038.186.04.18.042.182.043.18.046.18.046.177.05.178.05.178.053.174.052.173.057.173.056.17.06.17.06.17.063.168.064.17.067.165.07.165.07.164.07.162.075.163.074.16.076.158.08.16.085.167.036.067.042.078.042.078.043.08.042.075.043.076.045.08.043.073.046.078.046.078.043.073.05.08.045.074.047.074.048.077.047.072.05.077.05.073.047.073.053.077.047.07.053.074.053.076.052.073.05.07.054.072.054.073.052.07.06.075.05.07.056.07.058.072.056.07.058.07.057.07.057.07.06.07.06.07.063.074.056.063.063.07.06.07.063.066.062.07.067.072.06.065.065.067.064.067.07.07.062.065.068.067.07.068.066.065.067.064.07.067.072.067.07.067.073.066.07.063.074.067.072.063.074.065.075.066.077.066.072.06.08.067.076.062.08.064.08.063.075.06.08.062.082.064.08.06.08.06.086.065.087.065.085.062.084.06.083.058.088.063.085.06.088.06.093.06.086.058.093.062.087.056.095.062.09.057.096.06.095.058.097.06.093.056.097.057.096.057.1.058.1.057.098.055.093.053.086.047.082.044.08.042.086.043.084.04.088.044.09.042.087.04.093.042.09.04.093.04.096.04.095.04.1.038.097.038.102.038.1.037.104.036.104.036.102.035.11.036.108.035.11.034.11.033.11.032.114.032.114.03.114.03.116.032.12.03.12.028.115.028.124.028.122.027.123.026.125.024.124.025.126.023.13.024.122.02.134.024.127.02.133.022.13.02.134.018.136.018.133.017.135.016.138.017.138.015.14.014.137.013.14.01.146.013.137.01.14.01.15.01.136.007.15.008.145.007.142.005.15.005.143.004.146.002.15.003h.15l.15.002h.3l.154-.003.148-.003.155-.003.15-.004.157-.006.153-.006.148-.006.16-.008.154-.01.15-.008.16-.01.153-.012.152-.012.164-.014.152-.014.154-.014.16-.016.16-.017.156-.018.156-.018.16-.02.157-.02.162-.02.158-.022.158-.023.157-.024.163-.025.157-.024.164-.027.152-.026.164-.03.158-.027.164-.03.153-.03.164-.03.156-.033.163-.033.152-.032.158-.033.168-.038.157-.035.157-.037.162-.038.15-.037.168-.04.155-.04.156-.04.16-.043.158-.043.156-.043.16-.043.156-.045.158-.047.15-.044.164-.05.15-.045.16-.05.155-.05.15-.05.153-.05.154-.052.157-.054.153-.054.15-.053.155-.056.148-.054.15-.056.157-.06.144-.055.15-.058.152-.06.147-.06.15-.06.144-.062.15-.063.146-.064.144-.063.145-.064.142-.065.147-.067.14-.065.142-.066.144-.07.134-.064.14-.07.15-.072.13-.065.14-.072.136-.07.138-.073.13-.07.14-.075.13-.072.137-.076.128-.072.13-.074.135-.078.13-.077.126-.075.126-.077.126-.077.123-.077.125-.08.128-.082.12-.078.12-.08.126-.084.113-.076.12-.084.117-.08.118-.085.113-.08.117-.085.115-.085.11-.083.11-.083.112-.087.106-.084.108-.086.106-.085.108-.09.1-.08.105-.09.104-.09.1-.086.096-.086.1-.09.098-.09.094-.085.093-.087.095-.09.094-.092.09-.09.087-.086.09-.093.087-.09.087-.09.084-.09.084-.09.08-.09.082-.092.08-.09.077-.09.076-.09.077-.095.075-.093.073-.09.07-.09.073-.095.068-.09.07-.093.066-.093.066-.093.064-.093.06-.086.066-.1.06-.09.057-.09.06-.094.056-.093.056-.09.054-.092.056-.097.05-.09.05-.092.05-.096.047-.088.048-.095.046-.09.045-.094.045-.093.043-.095.04-.094.04-.093.04-.092.038-.095.037-.093.035-.092.035-.097.032-.09.032-.095.032-.097.028-.092.03-.096.026-.095.027-.094.036-.133 1.145-2.307 1.882-1.637 2.357-.818 2.57.154 2.306 1.144 1.638 1.88.818 2.357-.154 2.572-.054.204-.067.238-.067.23-.073.242-.075.238-.075.23-.08.23-.08.23-.085.233-.086.228-.09.226-.09.226-.093.224-.094.22-.1.223-.1.223-.1.212-.105.218-.107.218-.11.216-.11.212-.112.21-.113.206-.117.208-.12.213-.123.207-.12.198-.124.202-.127.2-.13.202-.13.2-.128.19-.135.198-.134.192-.136.192-.14.19-.138.19-.14.185-.148.192-.142.18-.147.184-.15.184-.147.178-.15.177-.15.175-.154.177-.154.173-.155.172-.158.172-.16.17-.162.172-.156.16-.17.172-.162.164-.164.162-.166.16-.166.16-.17.16-.17.155-.172.158-.173.155-.17.15-.177.155-.176.15-.172.145-.18.15-.18.148-.18.145-.178.142-.184.144-.18.138-.19.144-.182.137-.183.134-.19.14-.182.13-.185.13-.19.134-.19.13-.19.13-.193.13-.19.124-.194.126-.19.124-.198.124-.193.12-.2.122-.196.12-.196.117-.198.116-.196.116-.202.115-.205.117-.197.11-.205.113-.2.11-.207.108-.2.106-.206.107-.206.106-.204.103-.206.1-.206.102-.214.103-.202.096-.21.1-.205.094-.216.1-.207.09-.21.094-.214.093-.212.092-.214.09-.21.09-.207.083-.21.085-.218.086-.216.085-.22.086-.214.08-.216.08-.212.08-.217.077-.218.077-.218.076-.218.075-.217.074-.222.073-.215.07-.216.07-.22.07-.225.068-.223.067-.21.063-.227.066-.22.064-.22.062-.218.06-.226.06-.22.06-.22.056-.23.06-.22.053-.226.055-.22.052-.224.052-.22.05-.224.05-.22.047-.225.048-.226.047-.225.045-.226.044-.22.042-.227.04-.226.042-.227.04-.22.036-.226.037-.227.037-.226.035-.226.033-.22.032-.228.03-.228.03-.22.03-.222.025-.228.027-.228.024-.223.024-.228.022-.224.022-.223.02-.23.02-.224.016-.23.017-.22.015-.23.014-.218.013-.226.01-.232.012-.226.008-.22.008-.227.007-.22.005-.23.004-.22.003-.224.002h-.453l-.225-.003-.22-.004-.218-.005-.227-.006-.22-.008-.228-.01-.223-.01-.217-.01-.224-.013-.223-.015-.226-.016-.22-.018-.215-.017-.227-.02-.218-.02-.223-.024-.22-.022-.22-.025-.214-.026-.223-.028-.223-.03-.22-.032-.212-.03-.216-.035-.222-.035-.218-.037-.214-.036-.22-.04-.216-.042-.216-.042-.213-.044-.215-.045-.216-.047-.218-.05-.212-.05-.215-.052-.212-.052-.212-.055-.21-.056-.218-.06-.21-.06-.21-.062-.21-.063-.21-.065-.21-.067-.21-.07-.207-.07-.21-.072-.21-.075-.202-.074-.204-.078-.208-.08-.204-.08-.21-.086-.202-.084-.202-.087-.202-.09-.2-.09-.202-.092-.2-.095-.2-.096-.196-.098-.198-.1-.197-.103-.2-.105-.185-.102-.173-.096-.16-.092-.166-.094-.16-.092-.158-.093-.16-.095-.16-.096-.158-.096-.155-.096-.16-.1-.15-.095-.154-.1-.154-.1-.156-.103-.152-.1-.148-.1-.147-.1-.153-.107-.15-.106-.145-.1-.146-.106-.148-.107-.145-.107-.148-.11-.143-.107-.143-.11-.142-.11-.138-.107-.14-.112-.14-.11-.14-.114-.133-.11-.14-.117-.134-.113-.137-.116-.133-.115-.133-.117-.135-.12-.13-.116-.128-.115-.133-.12-.13-.12-.124-.117-.127-.12-.13-.126-.122-.12-.125-.123-.123-.123-.12-.122-.123-.124-.12-.126-.12-.123-.118-.128-.12-.127-.115-.125-.116-.13-.118-.13-.117-.13-.11-.125-.112-.13-.11-.13-.11-.13-.11-.133-.112-.135-.102-.128-.108-.135-.106-.134-.105-.133-.107-.138-.098-.13-.106-.14-.103-.138-.098-.133-.102-.14-.096-.135-.1-.14-.095-.138-.095-.137-.093-.138-.096-.14-.094-.143-.093-.143-.088-.138-.09-.14-.088-.14-.09-.146-.09-.146-.08-.135-.087-.147-.082-.14-.087-.15-.08-.142-.082-.144-.08-.147-.08-.143-.078-.146-.08-.15-.08-.152-.146-.286-.147-.296-.144-.298-.14-.3-.136-.297-.132-.298-.13-.302-.124-.304-.122-.303-.117-.303-.115-.305-.11-.308-.108-.307-.103-.307-.1-.31-.097-.307-.093-.31-.09-.31-.086-.313-.082-.31-.08-.316-.076-.313-.073-.312-.07-.313-.065-.315-.063-.315-.06-.314-.056-.315-.054-.32-.05-.317-.046-.316-.044-.32-.04-.316-.038-.32-.034-.315-.03-.317-.03-.323-.025-.318-.022-.316-.018-.32-.016-.32-.014-.316-.01-.318-.008-.32-.005-.32-.003-.317v-.32l.005-.32.006-.32.01-.316.01-.32.016-.32.017-.32.02-.317.023-.317.026-.323.026-.314.03-.318.033-.32.035-.316.037-.316.04-.316.044-.318.045-.316.05-.316.05-.313.052-.317.055-.315.057-.314.06-.314.063-.317.065-.315.066-.31.07-.313.07-.312.075-.315.075-.31.078-.307.08-.31.083-.312.084-.31.087-.31.09-.306.092-.31.094-.307.096-.308.096-.303.1-.307.103-.306.105-.304.106-.306.11-.304.11-.3.112-.305.114-.3.116-.3.12-.304.12-.298.123-.302.123-.295.126-.295.13-.298.128-.294.13-.293.135-.295.135-.292.14-.296.14-.294.14-.287.144-.292.143-.287.146-.288.15-.29.15-.288.154-.287.152-.282.16-.29.155-.278.16-.28.16-.283.165-.282.166-.28.165-.277.17-.278.168-.274.17-.27.176-.278.174-.27.18-.28.174-.26.183-.273.184-.273.18-.262.187-.267.187-.265.19-.264.19-.264.192-.263.192-.257.198-.262.195-.256.198-.255.2-.253.2-.253.202-.25.206-.254.206-.25.21-.25.207-.244.212-.25.21-.24.216-.245.217-.242.214-.236.22-.24.22-.236.22-.232.225-.236.22-.228.228-.232.227-.228.227-.225.233-.23.23-.22.234-.223.234-.22.234-.216.244-.22.236-.214.243-.215.242-.21.242-.21.243-.206.247-.207.25-.207.247-.2.255-.203.248-.196.257-.198.253-.193.257-.194.257-.19.26-.19.26-.186.263-.185.262-.182.263-.18.27-.18.263-.174.27-.176.272-.172.27-.17.276-.168.275-.165.272-.163.278-.16.28-.16.28-.155.278-.152.284-.152.285-.15.283-.144.29-.145.288-.143.286-.137.29-.135.29-.133.27-.12.27-.12.27-.115.26-.11.267-.11.264-.108.266-.107.265-.104.266-.102.258-.096.266-.097.26-.092.263-.092.26-.087.256-.085.26-.084.26-.08.257-.08.26-.077.255-.074.257-.07.253-.07.254-.066.256-.065.25-.06.254-.06.25-.057.257-.056.25-.053.25-.05.25-.047.248-.044.25-.043.247-.04.25-.038.245-.035.248-.033.245-.03.247-.028.24-.026.244-.023.25-.02.242-.017.243-.016.242-.013.24-.01.24-.008.24-.005.238-.002h.24l.236.002zm-.395 12.998h-.098l-.106.004-.1.003-.108.005-.11.005-.11.007-.115.01-.112.008-.12.01-.12.014-.118.013-.123.015-.124.017-.124.016-.134.02-.128.022-.132.022-.134.024-.138.026-.137.027-.14.03-.14.03-.145.033-.145.034-.145.035-.15.037-.152.04-.15.04-.154.043-.157.045-.156.047-.164.05-.16.05-.162.052-.164.054-.17.058-.167.058-.17.06-.173.064-.17.063-.176.068-.18.07-.176.07-.178.073-.18.076-.187.08-.184.078-.185.08-.188.085-.185.083-.184.087-.184.088-.18.088-.185.093-.186.094-.184.096-.184.098-.183.1-.182.1-.182.105-.184.107-.18.107-.182.108-.185.114-.18.11-.18.116-.183.118-.18.12-.183.12-.177.122-.178.124-.18.126-.18.13-.178.13-.18.132-.175.132-.177.135-.178.138-.175.138-.176.142-.176.143-.174.143-.175.146-.173.148-.172.148-.172.15-.172.153-.17.154-.172.157-.165.152-.172.16-.167.16-.17.164-.165.163-.164.162-.166.167-.167.17-.162.168-.16.167-.164.174-.16.174-.163.177-.155.173-.16.178-.158.18-.156.18-.157.183-.152.18-.153.183-.153.186-.154.19-.147.18-.15.19-.15.19-.147.19-.15.197-.143.188-.145.196-.143.194-.142.196-.14.196-.14.2-.14.2-.135.196-.138.203-.135.2-.133.204-.135.206-.13.204-.13.202-.13.208-.128.21-.125.203-.128.214-.12.206-.124.21-.122.213-.116.206-.122.22-.115.21-.117.214-.112.21-.114.218-.112.216-.108.213-.108.215-.108.218-.106.22-.103.214-.105.222-.1.218-.102.22-.096.217-.098.223-.094.217-.095.223-.09.22-.09.22-.09.223-.07.174.288-.24 2.458-.767.098-.01.055-.006.063-.01.065-.008.07-.012.076-.013.08-.014.082-.015.088-.018.092-.02.097-.02.095-.023.105-.026.106-.027.107-.027.112-.03.11-.032.12-.034.117-.035.127-.038.122-.038.127-.04.13-.044.132-.044.133-.046.134-.047.138-.05.144-.052.136-.05.146-.055.144-.055.15-.058.142-.057.15-.06.15-.062.155-.063.148-.062.157-.066.155-.067.16-.07.154-.067.16-.07.163-.074.15-.07.17-.076.15-.07.333-.156.33-.157.323-.158.33-.163.33-.167.333-.17.334-.172.332-.174.328-.173.33-.18.334-.18.326-.18.323-.18.333-.186.32-.18.32-.184.313-.182.317-.186.307-.18.31-.186.297-.18.302-.18.292-.18.29-.18.278-.172.28-.175.266-.168.266-.17.25-.16.253-.163.25-.162.233-.153.228-.15.216-.145.207-.138.21-.142.184-.126.187-.13.172-.117.163-.114.14-.1.174-.124.16-.117.163-.12.164-.122.158-.12.157-.12.15-.116.154-.12.152-.122.146-.118.145-.12.14-.116.14-.12.14-.12.133-.116.136-.12.13-.117.128-.118.127-.117.125-.117.123-.116.12-.116.12-.117.115-.115.114-.115.11-.114.108-.113.11-.117.105-.112.104-.115.1-.113.1-.114.098-.112.095-.11.093-.11.09-.11.088-.11.09-.11.082-.107.083-.107.082-.11.078-.105.077-.105.077-.107.072-.103.07-.104.07-.1.07-.107.064-.1.066-.102.06-.095.06-.1.06-.098.058-.1.054-.096.053-.093.052-.094.05-.094.05-.094.045-.09.045-.092.043-.09.042-.088.04-.088.04-.087.036-.086.035-.083.034-.083.032-.08.03-.08.03-.082.03-.08.027-.08.024-.07.025-.076.02-.075.024-.077.02-.067.018-.07.018-.07.017-.07.015-.065.013-.06.015-.072.01-.053.013-.07.01-.052.01-.064.006-.055.007-.056.006-.056.005-.053.005-.05.004-.052.003-.05.002-.044.002-.048v-.048l.002-.043v-.08l-.003-.04-.002-.04v-.037l-.003-.034-.004-.04-.003-.026-.004-.04-.004-.027-.004-.03-.005-.03-.005-.026-.005-.025-.006-.026-.006-.028-.004-.022-.005-.02-.006-.023-.005-.02-.008-.02-.006-.02-.006-.017-.007-.02-.005-.014-.007-.018-.006-.016-.006-.013-.006-.014-.007-.015-.006-.012-.008-.013-.007-.013-.006-.01-.007-.01-.007-.014-.008-.012-.007-.01-.006-.01-.008-.013-.006-.007-.007-.01-.01-.012-.006-.008-.01-.013-.01-.01-.01-.012-.007-.008-.012-.012-.01-.01-.01-.01-.01-.01-.014-.014-.014-.012-.014-.012-.013-.01-.017-.016-.015-.012-.017-.013-.017-.012-.02-.014-.02-.014-.02-.013-.024-.016-.02-.012-.027-.016-.025-.015-.028-.016-.026-.013-.032-.017-.03-.016-.033-.015-.032-.017-.036-.017-.037-.016-.04-.016-.04-.017-.04-.016-.045-.015-.045-.016-.048-.018-.047-.015-.05-.016-.054-.015-.052-.014-.058-.015-.056-.014-.062-.014-.06-.013-.063-.014-.066-.014-.068-.013-.07-.012-.07-.01-.073-.01-.076-.01-.077-.01-.08-.01-.08-.008-.083-.007-.085-.007-.09-.005-.088-.005-.09-.004-.095-.003h-.093l-.097-.002h-.102z"/><path d="M166.186 52.303l.23.005.232.007.23.01.23.013.23.015.227.017.228.02.226.023.225.026.225.027.224.03.223.033.223.036.222.04.22.04.22.044.22.047.217.05.217.05.216.056.214.057.214.06.214.064.212.066.21.07.21.07.208.074.207.077.207.08.205.084.203.086.2.088.202.092.2.094.196.097.196.1.193.104.193.106.19.108.19.11.187.115.186.117.183.12.18.122.18.126.18.128.175.13.174.135.17.137.17.14.167.14.164.144.162.15.16.148.157.152.156.155.15.156.15.16.148.163.144.164.142.167.14.168.134.17.133.173.132.177.127.176.123.18.12.18.12.183.116.187.11.187.11.188.105.19.103.19.1.194.096.195.093.197.09.197.087.2.083.2.08.2.077.203.074.204.07.205.067.205.064.206.06.208.057.21.054.208.052.21.048.21.044.21.04.21.04.214.034.21.032.214.028.213.026.213.022.215.02.216.015.214.014.215.01.214.007.214.005.215v.429l-.006.215-.008.215-.01.214-.015.216-.016.215-.02.215-.02.214-.026.216-.027.213-.03.215-.034.214-.036.214-.04.213-.04.212-.044.214-.046.212-.05.213-.052.214-.054.21-.056.212-.06.212-.062.21-.064.21-.068.21-.07.21-.07.21-.076.21-.077.208-.08.208-.082.207-.084.21-.086.206-.09.206-.09.207-.095.204-.097.205-.1.204-.1.205-.104.202-.106.203-.108.203-.11.203-.113.202-.115.2-.117.202-.12.2-.12.2-.125.2-.126.2-.13.197-.13.2-.134.196-.136.197-.138.196-.14.195-.142.195-.144.194-.146.194-.15.194-.15.193-.154.192-.155.192-.158.19-.16.19-.162.19-.164.19-.167.19-.17.187-.17.188-.174.187-.176.186-.177.186-.18.185-.183.184-.184.184-.186.183-.19.184-.19.182-.194.182-.195.18-.197.18-.2.18-.202.178-.203.178-.207.178-.21.176-.21.176-.213.176-.215.175-.218.173-.22.173-.222.174-.224.17-.227.172-.227.17-.232.17-.232.17-.233.165-.198.14-.205.143-.213.148-.223.153-.23.157-.24.16-.246.166-.254.17-.264.174-.27.177-.28.18-.285.185-.293.188-.3.19-.306.194-.314.196-.32.198-.324.2-.332.203-.337.206-.34.206-.348.206-.353.21-.358.208-.36.21-.367.21-.37.21-.374.21-.376.21-.38.21-.385.21-.39.207-.39.208-.39.206-.396.205-.397.203-.4.2-.4.2-.404.196-.405.192-.4.188-.21.097-.203.093-.205.093-.204.092-.205.09-.204.09-.205.09-.205.088-.206.087-.206.086-.207.086-.206.084-.206.083-.207.08-.207.08-.207.08-.208.08-.207.076-.208.076-.21.075-.207.073-.21.072-.208.07-.21.07-.208.067-.21.065-.21.064-.21.062-.213.06-.21.06-.213.058-.212.056-.213.055-.214.053-.214.05-.215.05-.215.045-.217.044-.22.042-.218.04-.22.036-.222.035-.223.032-.225.03-.225.025-.185.02-.39.026-.394.002-.392-.024-.39-.05-.385-.075-.38-.1-.373-.124-.363-.15-.353-.17-.34-.196-.327-.217-.312-.238-.296-.257-.278-.277-.26-.293-.24-.31-.22-.326-.198-.34-.175-.35-.15-.362-.13-.37-.078-.292-.017.11-.032.22-.03.22-.027.22-.028.22-.024.217-.022.218-.02.218-.02.216-.017.216-.016.216-.014.214-.01.215-.01.213-.01.212-.005.212-.004.21v.212l-.002.21v.207l.004.21.005.207.007.206.01.205.01.205.012.204.014.202.016.2.018.202.02.2.02.2.024.197.025.195.027.196.03.196.03.195.03.193.036.192.036.19.038.19.04.19.04.187.044.187.045.184.045.185.05.182.05.182.052.182.054.18.057.178.057.178.06.177.06.174.064.175.065.173.067.172.068.172.07.17.073.17.075.167.076.167.078.167.08.165.082.164.087.17.038.072.043.082.044.08.043.08.045.08.044.08.046.08.045.08.047.078.046.078.047.08.05.078.046.077.05.08.05.076.05.077.05.078.05.078.052.076.05.076.053.075.053.076.054.077.053.075.055.076.055.075.055.074.056.075.056.073.057.074.057.073.058.073.058.073.06.072.06.074.06.072.06.07.063.074.062.072.062.07.063.072.064.07.064.072.067.07.066.072.065.07.066.07.068.07.07.07.067.068.068.07.07.068.07.07.072.068.07.068.073.067.073.066.074.068.075.068.074.067.074.065.077.067.078.067.077.065.08.065.078.066.08.066.08.065.08.065.083.065.08.064.085.065.085.064.084.063.085.064.085.063.087.063.087.063.09.062.088.063.09.063.09.06.09.063.093.06.093.063.093.06.095.06.096.06.096.06.096.06.1.06.097.058.097.06.1.057.1.06.102.057.1.057.102.056.103.056.1.054.103.055.103.055.107.054.106.052.108.054.11.053.11.052.112.052.113.052.113.052.116.052.117.05.118.05.12.05.12.05.12.05.123.05.125.048.125.048.126.048.127.047.128.047.13.046.132.046.13.044.134.045.134.043.135.043.135.043.138.04.138.042.14.04.14.042.14.04.142.04.143.037.146.04.145.036.147.037.147.035.15.035.147.035.15.033.152.034.152.033.153.03.153.032.155.03.155.028.157.028.157.028.158.027.16.027.16.025.16.024.16.024.162.023.163.022.165.02.164.02.165.02.168.02.166.016.168.018.17.016.168.015.17.012.17.014.172.012.172.01.173.01.173.01.174.01.175.006.175.006.176.006.178.004.177.004.18.002.178.002h.36l.18-.002.18-.003.182-.004.183-.006.183-.005.185-.008.184-.008.184-.01.185-.01.185-.01.186-.013.19-.013.186-.014.188-.016.188-.017.19-.018.19-.02.19-.02.19-.02.19-.023.192-.025.192-.025.193-.026.19-.028.195-.028.194-.03.193-.03.194-.033.196-.034.195-.033.196-.036.196-.036.197-.04.197-.04.198-.04.198-.042.198-.043.198-.046.2-.046.2-.048.2-.048.2-.05.2-.052.2-.053.2-.054.202-.055.202-.057.202-.057.203-.06.203-.06.202-.063.203-.064.204-.065.204-.065.205-.068.204-.07.204-.07.205-.073.204-.073.206-.075.205-.076.206-.08.208-.08.206-.08.206-.082.207-.085.208-.085.207-.087.207-.088.207-.09.208-.092.207-.093.21-.095.207-.096.208-.098.21-.1.207-.1.21-.104.21-.104.208-.106.21-.108.21-.11.21-.11.21-.113.21-.114.21-.117.21-.117.21-.12.21-.12.21-.123.21-.125.212-.126.21-.128.212-.13.21-.13.21-.134.213-.135.21-.136.212-.14.21-.14.212-.142.21-.144.213-.146.21-.147.212-.15.21-.15.212-.153.212-.155.21-.157.212-.16.21-.16.212-.16.212-.166.21-.168.212-.168.21-.17.212-.172.21-.174.212-.177.21-.177.212-.18.21-.182.21-.183.212-.187.21-.188.21-.19.21-.192.21-.195.21-.196.21-.2.21-.2.21-.203.21-.205.208-.207.21-.21.208-.21.21-.214.207-.214.21-.218.206-.22.207-.222.208-.224.208-.227.207-.23.206-.23.207-.232.207-.236.206-.237.206-.24.206-.243.205-.244.205-.247.205-.25.205-.25.204-.254.204-.256.203-.258.203-.26.203-.265.202-.265.202-.268.202-.27.202-.273.2-.275.202-.277.2-.28.2-.282.2-.285.2-.288.197-.29.198-.29.207-.308.23-.32.25-.302.27-.286.286-.268.304-.248.32-.228.333-.207.347-.184.358-.162.368-.138.376-.113.38-.088.39-.064.39-.038.392-.012.392.014.39.04.388.064.383.09.375.115.367.138.357.163.346.187.333.208.32.23.302.25.286.268.27.287.247.304.228.32.207.334.184.346.16.358.14.368.112.376.088.383.063.386.037.39.012.393-.015.392-.04.39-.064.388-.09.382-.114.375-.14.367-.162.358-.186.346-.208.333-.222.332-.232.342-.233.34-.233.335-.234.333-.234.332-.236.33-.237.326-.238.325-.237.32-.24.32-.238.318-.24.315-.24.312-.242.31-.243.307-.242.305-.244.302-.244.3-.245.298-.246.296-.245.293-.247.292-.247.288-.248.286-.248.284-.25.28-.25.28-.25.277-.252.274-.25.273-.254.27-.253.267-.254.265-.253.263-.255.26-.255.258-.256.256-.255.254-.257.25-.257.25-.257.247-.258.244-.26.243-.26.24-.258.238-.26.235-.262.234-.26.23-.262.23-.263.226-.262.225-.263.222-.263.22-.264.217-.264.216-.265.213-.266.212-.265.208-.267.207-.266.205-.266.202-.266.2-.267.2-.267.195-.268.194-.268.19-.268.19-.268.187-.27.186-.268.183-.27.18-.27.18-.27.177-.27.175-.27.172-.27.17-.27.17-.27.166-.272.164-.27.163-.272.16-.272.158-.27.157-.273.154-.27.153-.273.15-.272.148-.272.147-.273.145-.272.142-.273.14-.272.138-.272.135-.272.134-.273.134-.272.13-.273.128-.273.126-.272.124-.273.122-.273.12-.273.12-.273.116-.273.114-.27.113-.273.11-.273.11-.272.106-.272.105-.272.103-.272.103-.27.1-.273.097-.272.095-.27.094-.27.09-.272.092-.27.088-.272.086-.27.085-.27.084-.27.08-.27.08-.27.078-.27.076-.268.074-.27.073-.267.07-.268.07-.268.066-.268.066-.267.064-.268.062-.267.06-.266.06-.267.055-.266.055-.265.054-.265.052-.265.05-.264.048-.264.047-.263.045-.262.044-.263.042-.262.04-.262.04-.26.036-.26.035-.262.034-.26.03-.26.032-.258.03-.26.027-.257.025-.258.024-.257.022-.256.022-.256.02-.255.018-.254.017-.255.014-.253.014-.253.013-.253.012-.25.01-.252.007-.25.006-.25.005-.25.005-.25.002h-.743l-.247-.005-.246-.005-.245-.006-.245-.006-.244-.01-.243-.01-.242-.01-.242-.014-.24-.014-.24-.016-.24-.017-.24-.018-.238-.02-.237-.02-.236-.023-.238-.023-.235-.026-.234-.026-.234-.027-.235-.028-.23-.03-.233-.03-.23-.033-.23-.035-.23-.035-.228-.036-.227-.037-.227-.038-.225-.04-.225-.042-.225-.042-.223-.043-.222-.045-.222-.045-.22-.047-.22-.048-.22-.05-.217-.05-.216-.05-.217-.054-.215-.053-.214-.054-.214-.056-.213-.057-.21-.06-.21-.058-.21-.06-.21-.062-.208-.063-.207-.063-.207-.065-.205-.066-.204-.067-.204-.07-.203-.07-.2-.07-.2-.07-.2-.072-.2-.074-.197-.074-.196-.076-.195-.077-.195-.077-.193-.08-.192-.08-.192-.08-.19-.082-.19-.082-.187-.084-.188-.085-.186-.086-.185-.086-.184-.088-.183-.09-.182-.09-.18-.09-.18-.093-.18-.093-.177-.095-.176-.095-.173-.095-.162-.09-.16-.092-.16-.09-.158-.093-.158-.092-.157-.094-.157-.094-.154-.094-.155-.096-.155-.096-.152-.097-.153-.098-.15-.1-.152-.098-.148-.1-.15-.1-.147-.1-.148-.103-.146-.103-.146-.103-.144-.104-.144-.104-.143-.106-.142-.105-.14-.107-.14-.107-.14-.106-.138-.11-.138-.108-.136-.11-.136-.11-.136-.11-.133-.113-.134-.112-.134-.112-.13-.113-.13-.114-.132-.114-.13-.116-.127-.116-.126-.116-.126-.118-.126-.118-.125-.118-.123-.12-.122-.118-.122-.12-.12-.12-.122-.124-.12-.12-.117-.123-.118-.125-.118-.124-.115-.123-.114-.124-.114-.125-.114-.126-.112-.127-.112-.127-.11-.127-.108-.127-.11-.13-.107-.128-.106-.13-.104-.13-.106-.13-.103-.13-.103-.132-.102-.132-.1-.133-.1-.132-.1-.134-.1-.133-.096-.134-.097-.135-.096-.135-.094-.135-.094-.137-.093-.136-.092-.138-.09-.137-.09-.138-.09-.14-.087-.137-.087-.14-.087-.14-.086-.14-.084-.14-.084-.14-.083-.14-.082-.143-.08-.142-.08-.142-.078-.142-.08-.144-.075-.142-.076-.143-.08-.153-.143-.28-.145-.29-.14-.293-.137-.29-.134-.295-.13-.295-.125-.296-.123-.297-.12-.298-.115-.3-.112-.3-.11-.3-.104-.303-.1-.303-.1-.303-.094-.303-.092-.306-.088-.304-.085-.306-.08-.307-.078-.308-.075-.308-.07-.31-.07-.308-.065-.31-.06-.31-.06-.31-.055-.312-.053-.312-.05-.312-.045-.312-.043-.312-.04-.313-.037-.313-.034-.313-.03-.313-.028-.313-.025-.314-.022-.315-.018-.313-.016-.315-.013-.314-.01-.314-.008-.316-.005-.314-.002-.315v-.315l.004-.314.007-.315.008-.314.01-.314.016-.314.017-.314.02-.315.022-.315.025-.314.027-.313.03-.314.033-.313.035-.313.037-.313.04-.313.042-.312.044-.312.048-.312.05-.313.05-.31.056-.31.057-.312.06-.31.06-.312.064-.31.067-.31.07-.31.07-.307.072-.31.074-.308.077-.307.08-.307.083-.307.084-.306.086-.305.088-.307.092-.304.092-.306.095-.304.096-.303.098-.303.1-.3.104-.304.105-.3.107-.3.11-.3.11-.3.114-.298.115-.298.116-.297.12-.296.12-.295.123-.296.124-.295.127-.293.13-.293.13-.294.133-.29.134-.292.137-.29.138-.29.14-.287.142-.287.143-.287.146-.285.147-.285.15-.284.15-.284.153-.283.155-.28.156-.28.158-.28.16-.28.16-.276.164-.276.165-.274.168-.275.17-.272.17-.273.17-.27.174-.27.175-.27.177-.268.178-.267.18-.265.182-.265.184-.263.185-.262.186-.26.188-.26.19-.26.19-.257.194-.256.195-.255.196-.253.198-.253.2-.25.2-.25.203-.247.205-.247.206-.246.207-.244.21-.242.21-.242.21-.24.214-.238.215-.237.215-.235.218-.234.22-.233.22-.23.22-.23.225-.227.225-.227.227-.223.228-.223.23-.22.23-.22.232-.218.234-.217.236-.216.236-.212.238-.21.24-.21.24-.208.243-.205.244-.205.246-.203.247-.2.247-.198.25-.196.25-.195.252-.192.254-.19.254-.188.257-.187.258-.184.258-.182.26-.18.262-.178.263-.177.264-.174.266-.172.267-.17.268-.168.27-.165.27-.163.273-.16.274-.16.275-.155.276-.154.278-.15.28-.15.28-.147.28-.144.283-.142.285-.14.285-.135.287-.134.284-.13.27-.12.264-.116.263-.113.263-.11.263-.11.262-.106.26-.104.26-.1.26-.1.26-.097.258-.094.258-.093.258-.09.257-.087.256-.084.256-.083.254-.08.254-.077.254-.075.253-.072.253-.07.25-.068.252-.066.25-.063.25-.06.248-.058.248-.057.25-.053.246-.05.246-.05.246-.047.245-.044.244-.04.244-.04.244-.037.242-.034.242-.034.242-.03.24-.027.24-.025.24-.023.238-.02.238-.017.237-.015.237-.013.236-.01.235-.008.236-.006.233-.003h.233l.233.003zm-.39 11.998l-.108.002-.108.003-.11.003-.113.005-.113.006-.117.007-.118.008-.12.01-.122.012-.124.013-.126.014-.126.015-.13.017-.132.018-.132.02-.135.022-.137.024-.14.026-.14.026-.14.028-.145.03-.145.032-.148.033-.15.035-.15.037-.154.04-.154.04-.158.042-.158.043-.16.046-.16.047-.164.05-.166.052-.167.052-.168.056-.17.058-.173.06-.173.06-.175.065-.177.067-.18.068-.18.07-.18.072-.183.075-.184.076-.186.08-.188.08-.19.083-.187.085-.19.087-.19.088-.187.09-.188.092-.188.095-.187.096-.188.098-.187.1-.187.103-.187.104-.186.106-.187.108-.186.11-.186.112-.184.114-.185.115-.184.12-.184.118-.185.122-.183.123-.183.124-.183.127-.182.13-.182.13-.182.132-.18.134-.18.136-.18.137-.18.14-.18.14-.18.144-.177.144-.177.147-.177.148-.177.15-.176.15-.175.154-.174.153-.174.157-.172.157-.172.16-.172.16-.17.163-.17.164-.17.165-.17.166-.166.17-.167.168-.166.172-.166.173-.164.173-.164.175-.162.177-.162.178-.16.18-.16.18-.16.183-.157.184-.157.185-.155.186-.155.188-.154.19-.153.19-.15.19-.15.19-.15.195-.15.194-.147.195-.146.197-.145.197-.144.198-.143.2-.142.2-.14.202-.14.203-.138.204-.136.204-.137.206-.134.206-.134.207-.132.21-.13.207-.13.21-.128.21-.126.212-.126.212-.124.213-.122.214-.12.215-.12.214-.12.215-.117.216-.114.216-.115.217-.11.218-.113.218-.11.22-.108.22-.108.22-.105.22-.104.22-.103.222-.1.222-.1.222-.098.223-.096.223-.095.223-.092.225-.092.223-.09.224-.088.225-.087.224-.084.226-.084.226-.082.224-.08.225-.08.227-.076.225-.008.025.078-.09.276-.278.294-.26.31-.24.326-.22.34-.198.35-.175.363-.152.372-.127.378-.104.385-.078.39-.052.1-.01.064-.008.068-.01.072-.01.077-.01.08-.015.086-.014.088-.017.093-.02.097-.02.1-.023.103-.024.107-.027.11-.027.112-.03.115-.033.12-.033.12-.035.124-.038.126-.038.128-.04.13-.042.133-.044.136-.046.137-.047.14-.048.14-.05.14-.053.145-.053.146-.054.147-.057.15-.06.15-.058.15-.06.154-.063.154-.064.155-.065.156-.066.156-.067.16-.07.158-.07.16-.07.16-.072.162-.073.162-.075.158-.073.333-.156.33-.158.33-.16.334-.166.334-.167.334-.17.334-.174.335-.175.335-.178.333-.18.332-.18.33-.182.33-.183.327-.184.324-.183.322-.185.32-.185.315-.184.31-.184.31-.185.303-.183.3-.18.293-.18.29-.18.282-.175.278-.174.272-.17.265-.17.26-.165.25-.162.245-.16.236-.154.23-.15.22-.148.212-.142.203-.136.193-.132.184-.126.173-.12.163-.113.148-.105.173-.123.167-.122.166-.12.164-.123.16-.122.16-.12.156-.123.155-.12.152-.123.15-.12.147-.122.145-.122.144-.12.14-.12.14-.122.135-.12.135-.12.132-.12.13-.12.127-.12.125-.12.122-.12.122-.118.118-.12.117-.116.113-.118.113-.118.11-.117.108-.116.106-.116.104-.116.102-.115.1-.116.098-.114.096-.113.093-.113.092-.114.09-.112.088-.112.085-.11.083-.112.084-.11.08-.11.077-.11.077-.107.074-.107.073-.107.07-.107.07-.106.066-.105.063-.103.063-.104.06-.102.06-.102.058-.1.056-.1.053-.1.052-.097.05-.098.05-.096.047-.094.045-.094.044-.093.044-.094.04-.09.04-.092.037-.09.036-.086.035-.088.034-.086.03-.085.03-.085.03-.083.027-.08.027-.082.024-.08.024-.078.022-.076.02-.076.02-.076.017-.072.017-.072.016-.072.014-.068.013-.07.012-.067.01-.066.012-.064.008-.063.01-.063.006-.06.007-.06.005-.058.004-.058.004-.055.003-.055v-.053l.003-.052V66.42l-.003-.047-.002-.046v-.044l-.005-.043-.003-.042-.004-.04-.005-.04-.005-.038-.006-.037-.006-.037-.006-.035-.007-.032-.007-.033-.007-.032-.01-.032-.006-.03-.008-.027-.008-.028-.01-.027-.008-.028-.008-.025-.01-.024-.008-.024-.01-.024-.01-.02-.01-.023-.01-.023-.008-.02-.01-.02-.01-.022-.01-.018-.012-.02-.01-.02-.012-.017-.01-.017-.012-.018-.012-.018-.012-.017-.013-.018-.01-.016-.014-.017-.015-.018-.014-.017-.013-.016-.015-.018-.015-.016-.016-.017-.015-.02-.017-.015-.018-.017-.018-.017-.018-.016-.02-.018-.02-.017-.023-.02-.02-.017-.024-.017-.025-.02-.024-.017-.026-.02-.028-.018-.028-.018-.03-.02-.03-.018-.033-.02-.033-.018-.035-.02-.036-.018-.038-.02-.04-.02-.04-.018-.04-.02-.045-.018-.045-.02-.047-.018-.047-.02-.05-.018-.052-.018-.053-.02-.055-.016-.057-.018-.058-.017-.06-.02-.063-.015-.064-.017-.066-.015-.068-.016-.07-.015-.07-.014-.075-.014-.074-.013-.077-.01-.08-.013-.08-.01-.084-.01-.085-.01-.086-.01-.09-.007-.09-.007-.092-.006-.095-.006-.096-.003-.098-.003-.1-.002h-.208zM232.367 25.836l.128 2.16v-.005l.155 2.596v-.006l.182 2.992v-.006l.207 3.352-.002-.004.115 1.838.115 1.835v-.003l.123 1.948v-.003l.13 2.013v-.002l.13 2.065.14 2.144v-.004l.14 2.19v-.005l.15 2.3.147 2.216v-.003l.154 2.32v-.004l.16 2.355-.002-.004.16 2.387v-.004l.166 2.41V64.9l.167 2.432v-.004l.17 2.45v-.006l.173 2.46v-.004l.174 2.468v-.005l.177 2.472v-.005l.178 2.47v-.007l.18 2.462v-.006l.182 2.45v-.005l.183 2.436v-.006l.184 2.415v-.008l.185 2.39v-.005l.093 1.184v-.004L237 94.1v-.006l.093 1.168v-.004l.093 1.16v-.006l.092 1.15v-.006l.093 1.14v-.006l.094 1.128v-.005l.093 1.117v-.006l.092 1.105v-.007l.092 1.092v-.006l.092 1.078v-.006l.092 1.065v-.006l.092 1.048.092 1.033v-.006l.092 1.02v-.007l.09 1.005v-.008l.05.547.165-.276.274-.46.27-.446.28-.458.268-.436.272-.438.272-.433.267-.422.267-.416.26-.4.266-.406.26-.39.26-.388.257-.378.266-.386.26-.375.253-.356.253-.354.257-.355.25-.34.258-.345.25-.33.253-.33.253-.323.25-.317.25-.312.252-.307.25-.3.248-.293.25-.292.248-.282.248-.276.253-.28.244-.26.123-.132.13-.136.128-.134.118-.122.127-.128.13-.132.12-.118.132-.13.124-.122.12-.117.127-.12.123-.115.128-.12.126-.114.125-.114.128-.114.13-.115.13-.113.124-.107.13-.11.13-.11.128-.104.132-.106.128-.103.13-.102.13-.1.128-.098.134-.1.13-.097.135-.097.133-.096.135-.095.137-.094.135-.09.132-.088.14-.09.136-.09.137-.085.138-.084.144-.086.136-.08.144-.084.14-.08.146-.08.14-.073.147-.078.145-.073.145-.073.148-.07.153-.073.147-.067.153-.067.152-.065.15-.062.156-.062.153-.058.154-.058.156-.055.157-.055.16-.053.16-.05.16-.05.162-.046.166-.045.163-.04.163-.04.17-.04.164-.034.167-.033.166-.03.17-.03.17-.026.166-.024.174-.02.174-.02.173-.017.17-.013.174-.01.175-.01.174-.005.175-.003h.175l.17.002.174.006.176.008.174.012.175.013.175.017.17.02.177.02.17.026.172.027.173.03.17.034.17.034.17.038.17.042.162.042.167.047.165.048.163.052.16.052.16.056.163.06.157.06.153.06.154.064.16.07.15.067.15.07.147.073.14.072.15.078.14.076.14.077.143.082.137.08.135.084.133.084.135.088.13.088.127.087.126.09.128.093.12.09.12.092.12.095.123.098.114.094.117.098.11.096.11.096.113.102.11.1.106.1.104.102.106.104.1.1.097.1.105.11.096.1.095.104.093.104.1.114.178.205.177.21.175.217.17.22.165.218.16.22.154.218.154.223.15.227.146.224.14.222.137.226.137.23.13.228.133.235.128.233.123.23.12.23.12.235.115.234.115.237.114.24.11.237.11.243.104.237.105.243.105.247.1.242.1.243.098.248.094.24.094.247.095.25.09.248.09.25.09.257.09.255.084.247.085.257.083.252.084.26.08.247.082.266.08.26.08.263.076.257.078.27.072.25.075.263.077.275.066.24.073.27.077.286.066.247.072.282.067.26.065.257.068.273.067.273.063.26.13.545.125.537.122.54.12.54.12.552.115.54.115.55.11.54.107.533.106.543.11.558.104.55.098.52.1.535.103.555.102.554.085.47.097.543.19 1.064.176 1.007.356 2.024.172.977-.002-.015.172.96-.06 2.574-1.008 2.28-1.788 1.74-2.393.95-2.576-.058-2.28-1.01-1.74-1.787-.952-2.394-.175-.976-.174-.984-.353-2.013v.003l-.18-1.024.002.01-.184-1.035.002.01-.093-.52.002.01-.094-.515-.095-.52.003.013-.097-.524.003.015-.1-.525.004.015-.1-.524.004.017-.1-.525.003.018-.097-.505-.103-.522-.1-.494-.102-.5-.102-.492-.105-.493-.106-.495-.105-.47-.11-.48-.11-.477-.114-.475-.056-.23.005.018-.06-.24-.055-.223-.06-.242.004.02-.06-.23-.057-.226-.06-.222-.057-.216-.06-.228-.06-.208-.06-.217-.06-.21-.062-.22-.06-.202-.06-.207-.058-.19-.064-.207-.063-.203-.062-.193-.06-.19-.06-.184-.066-.196-.064-.187-.064-.183-.06-.175-.064-.175-.066-.177-.066-.177-.062-.16-.062-.16-.066-.168-.064-.158-.062-.15-.065-.152-.064-.145-.065-.148-.06-.136-.065-.14-.063-.133-.06-.124-.06-.124-.064-.124-.06-.116-.058-.108-.06-.11-.057-.1-.057-.1-.057-.096-.054-.086-.038.03-.054.04-.05.04-.056.044-.058.046-.057.046-.06.05-.055.046-.06.05-.06.053-.064.055-.066.058-.06.054-.07.064-.066.06-.068.063-.07.065-.073.07-.06.058-.075.072-.077.077-.075.074-.07.072-.075.075-.074.076-.078.08-.085.09-.07.076-.17.18-.16.18-.17.19-.17.194-.176.203-.18.213-.18.217-.18.222-.186.23-.19.24-.192.246-.194.253-.2.265-.2.27-.204.276-.206.283-.208.29-.21.3-.213.303-.22.32-.214.316-.223.333-.226.338-.227.346-.23.354-.23.358-.23.362-.237.38-.238.383-.24.39-.24.396-.252.416-.247.414-.245.413-.257.44-.252.435-.257.448-.254.445-.265.467-.264.47-.262.475-.272.493-.27.495-.27.495-.277.518-.278.52-.278.525-.284.54-.287.55-.287.554-.286.555-.296.58.008-.016-.297.584-.3.596.008-.016-.3.597-.3.61-.303.61-.307.628-.308.63-.31.644.005-.014-.316.657-.316.66.007-.013-.322.677-.34.72-.092.185-.136.256-.16.27-.2.3-.247.336-.307.362-.38.388-.477.407-.575.4-.698.38-.83.32-.92.215-.964.08-.963-.06-.9-.188-.793-.282-.678-.336-.56-.357-.457-.354-.377-.342-.305-.32-.25-.295-.208-.273-.17-.245-.15-.233-.123-.21-.106-.194-.094-.183-.083-.172-.074-.16-.065-.15-.067-.163-.093-.243-.09-.255-.08-.24-.07-.23-.066-.228-.06-.218-.056-.222-.055-.223-.05-.214-.05-.227-.05-.222-.047-.232-.047-.235-.046-.232-.045-.236-.047-.256-.042-.24-.044-.258-.046-.278-.042-.257-.044-.28-.04-.257-.044-.29-.046-.308-.045-.308-.043-.295-.086-.616-.085-.644-.087-.674-.087-.694-.087-.72-.09-.746-.087-.757-.09-.79-.09-.826-.085-.787-.093-.882-.09-.865-.09-.877-.092-.923-.09-.903-.09-.95-.093-.967-.092-.978-.092-.987-.096-1.055-.087-.96-.096-1.076-.098-1.1-.09-1.042-.09-1.052-.097-1.128-.09-1.07-.096-1.146-.097-1.163-.096-1.175-.09-1.096-.094-1.187-.095-1.197-.096-1.214-.09-1.153-.186-2.4-.184-2.412-.183-2.424-.18-2.43-.185-2.503-.182-2.512-.168-2.354-.178-2.5-.175-2.493-.166-2.39-.175-2.555-.16-2.34-.162-2.412-.16-2.38-.155-2.35-.152-2.303-.147-2.265-.144-2.22-.13-2.015-.136-2.1-.13-2.03-.12-1.927V41.4l-.12-1.915-.11-1.77-.21-3.407-.183-2.988-.153-2.56-.127-2.154-.098-1.687-.068-1.207.37-2.55 1.278-2.14 1.986-1.51 2.49-.655 2.55.37 2.14 1.28 1.51 1.984.655 2.49.067 1.183v-.01l.097 1.69v-.01zM305.662 66.036l.18.002.18.003.178.007.18.007.18.008.182.01.18.013.18.013.182.015.182.017.18.02.182.02.182.02.182.024.182.025.182.025.182.03.182.028.183.032.183.033.183.035.182.036.183.037.16.034.326.08.323.1.316.115.307.133.3.15.293.168.283.184.27.2.26.212.248.23.236.24.22.254.206.267.19.277.175.288.158.297.142.305.124.313.107.32.088.324.07.33.05.332.034.334.013.336-.005.337-.024.336-.043.333-.06.33-.08.328-.1.322-.115.316-.133.31-.15.3-.168.292-.184.282-.2.272-.212.26-.228.247-.242.234-.254.22-.267.206-.277.19-.288.175-.297.16-.305.14-.313.124-.32.107-.324.09-.33.07-.332.05-.334.033-.336.013-.337-.005-.336-.023-.333-.043-.33-.06-.113-.025-.086-.02-.086-.016-.085-.016-.084-.015-.084-.015-.083-.013-.08-.013-.082-.012-.08-.01-.078-.01-.078-.01-.077-.01-.077-.006-.074-.007-.075-.007-.073-.005-.073-.005-.072-.004-.07-.004-.07-.002-.07-.002-.07-.002h-.266l-.064.003h-.064l-.064.004-.063.003-.064.004-.06.006-.062.005-.06.007-.06.006-.06.007-.058.007-.058.008-.058.008-.056.008-.057.01-.056.01-.054.01-.055.01-.054.012-.055.012-.052.012-.053.012-.052.013-.054.015-.053.014-.05.013-.053.015-.052.015-.05.016-.05.015-.052.017-.05.017-.048.016-.05.018-.05.02-.05.018-.048.02-.05.02-.047.02-.05.02-.048.022-.05.022-.046.022-.048.023-.05.026-.048.024-.046.023-.048.026-.048.024-.047.026-.05.027-.048.028-.047.028-.047.028-.047.03-.047.03-.047.03-.048.03-.048.033-.046.03-.048.034-.048.034-.048.036-.047.034-.047.035-.048.036-.048.038-.047.037-.048.038-.048.04-.048.04-.048.038-.047.042-.047.04-.05.044-.047.043-.046.042-.05.045-.046.044-.05.048-.046.046-.048.047-.048.05-.048.048-.05.05-.046.05-.047.05-.048.053-.047.053-.048.053-.05.056-.046.054-.048.056-.048.056-.047.057-.048.058-.046.058-.05.06-.046.06-.048.063-.047.06-.048.064-.047.062-.047.064-.048.066-.046.065-.047.066-.046.067-.045.068-.047.07-.04.06-.098.15-.09.143-.092.147-.09.15-.09.153-.09.155-.087.158-.086.162-.087.165-.086.167-.083.168-.084.173-.083.175-.082.177-.08.18-.08.182-.08.184-.077.187-.076.19-.076.193-.074.195-.074.197-.07.2-.072.2-.07.203-.068.206-.067.206-.066.21-.064.212-.063.213-.062.215-.06.217-.06.22-.057.22-.055.222-.055.222-.053.225-.052.228-.05.23-.05.228-.047.23-.046.234-.044.234-.043.236-.042.237-.04.237-.04.24-.036.24-.035.24-.034.24-.032.243-.03.245-.03.245-.028.244-.026.246-.024.247-.023.248-.022.247-.02.248-.018.25-.017.25-.015.25-.013.25-.012.25-.01.252-.01.25-.006.25-.006.253-.004.252-.002.252v.502l.002.25.004.253.005.25.008.253.01.25.01.25.01.25.014.25.015.25.016.247.018.25.02.247.022.247.022.247.025.245.024.245.027.244.03.243.03.242.032.242.033.24.035.24.036.237.037.236.04.235.04.234.042.233.043.23.045.23.046.23.046.227.05.226.05.224.05.222.054.22.055.22.055.217.057.215.058.213.06.21.06.212.062.207.063.205.065.204.065.2.066.2.068.197.07.195.07.19.07.19.07.187.074.186.074.182.074.18.076.177.076.173.077.17.08.17.077.166.08.162.08.16.08.156.082.155.082.15.082.148.082.146.084.142.083.14.084.134.085.13.084.13.084.126.085.123.09.127.035.05.042.058.043.057.042.055.042.055.042.054.042.053.042.05.043.054.042.05.04.05.042.048.042.05.04.046.042.046.042.046.04.045.042.044.04.042.04.04.04.042.043.042.04.04.04.04.04.038.04.037.04.038.037.034.04.036.04.034.037.033.04.034.04.03.037.032.038.03.037.03.04.03.037.028.035.026.037.027.038.027.036.025.035.024.037.024.036.024.035.023.036.023.035.022.035.02.036.02.036.02.033.02.032.018.035.02.033.016.033.016.034.017.02.01.03-.033.048-.057.05-.058.05-.062.05-.065.055-.07.054-.07.055-.076.056-.078.058-.082.06-.084.058-.086.06-.09.06-.093.063-.097.063-.1.062-.1.063-.103.065-.107.064-.11.066-.11.065-.115.065-.116.066-.12.067-.122.068-.125.066-.126.068-.13.067-.132.066-.133.068-.134.067-.138.07-.14.067-.142.07-.145.066-.145.07-.15.066-.148.067-.153.07-.155.067-.156.068-.158.068-.16.067-.16.068-.162.068-.166.067-.165.067-.168.068-.17.067-.17.067-.173.064-.17.135-.357.13-.357.132-.362.13-.368.13-.373.13-.377.128-.38.127-.386.126-.39.125-.392.124-.397.122-.398.122-.402.12-.406.12-.407.118-.41.116-.412.116-.414.114-.415.113-.418.112-.418.11-.42.11-.42.108-.422.106-.42.105-.423.103-.422.103-.42.102-.423.1-.42.1-.42.096-.42.095-.418.095-.417.093-.415.092-.414.09-.41.09-.41.087-.408.085-.405.085-.402.083-.4.08-.392.16-.785.155-.77.148-.75.143-.737.136-.716.132-.696.125-.675.12-.653.115-.627.11-.6.202-1.125.18-1.004.083-.457.078-.427.074-.396.1-.52.045-.185.066-.245.078-.242.087-.24.006-.012.103-.247.113-.244.125-.237.135-.232.007-.01.174-.268.19-.258.2-.247.215-.236.007-.01.22-.22.234-.207.245-.196.253-.182.263-.17.01-.005.274-.157.283-.143.29-.128.296-.112.302-.096.01-.003.286-.074.29-.062.293-.047.294-.032.296-.018h.01l.302-.004.3.012.298.027.298.04.014.003.303.06.3.072.295.09.014.004.224.08.22.088.218.096.015.007.248.124.243.134.2.118.332.227.26.2.218.184.176.16.143.142.13.132.13.142.168.19.164.2.143.18.13.174.123.17.117.165.114.165.115.17.113.17.113.174.116.18.115.183.118.186.118.194.12.198.124.203.125.21.127.213.132.223.263.453.275.477.284.498.292.518.3.538.31.557.315.576.322.592.33.608.333.622.34.637.345.65.348.66.353.672.355.68.357.69.36.7.36.702.36.707.36.713.36.715.36.718.355.718.354.72.35.715.348.714.343.71.34.704.33.7.328.692.32.685.313.677.303.664.15.333.148.326.145.322.143.32.14.32.138.312.136.31.133.31.13.302.128.3.126.297.123.293.12.29.115.285.114.283.11.278.108.275.105.27.102.267.098.263.096.26.092.256.09.254.085.25.083.248.08.247.078.245.074.245.07.245.068.246.064.253.058.24.032.144.028.134.027.136.018.1.053.333.035.334.016.336-.003.337-.022.335-.042.334-.06.332-.078.327-.096.322-.116.317-.132.31-.15.3-.165.294-.182.283-.198.273-.212.26-.227.25-.24.235-.254.222-.265.207-.278.192-.287.175-.296.16-.306.142-.312.126-.32.108-.323.09-.33.072-.333.053-.334.034-.337.014-.336-.003-.336-.022-.334-.04-.33-.06-.328-.08-.323-.096-.317-.114-.31-.132-.302-.15-.29-.165-.284-.182-.273-.197-.26-.212-.25-.227-.235-.24-.22-.252-.208-.266-.192-.276-.176-.287-.16-.297-.143-.305-.126-.312-.108-.32-.09-.324-.07-.328-.007-.03v-.002l-.014-.054-.015-.058-.02-.08-.03-.096-.032-.11-.038-.123-.045-.135-.05-.15-.055-.16-.06-.168-.064-.18-.07-.188-.074-.198-.078-.205-.083-.214-.086-.22-.09-.227-.095-.235-.1-.24-.102-.248-.106-.253-.11-.26-.112-.265-.116-.27-.12-.276-.122-.28-.125-.286-.128-.29-.132-.293-.134-.297-.136-.3-.137-.304-.285-.625-.293-.634-.302-.645-.31-.656-.315-.665-.323-.673-.327-.678-.333-.683-.337-.686-.34-.69-.343-.69-.345-.69-.346-.69-.18-.358-.083.357-.106.45-.106.454-.11.453-.11.456-.112.456-.114.458-.116.458-.118.46-.12.458-.12.46-.123.46-.123.46-.127.458-.128.46-.13.458-.13.458-.135.458-.136.456-.136.455-.14.453-.14.452-.144.45-.146.45-.147.448-.15.445-.15.443-.155.442-.156.44-.158.435-.16.434-.162.427-.084.22-.083.212-.085.212-.084.212-.084.212-.086.21-.086.21-.087.208-.088.21-.09.207-.088.207-.09.206-.09.204-.092.204-.092.204-.093.202-.094.202-.093.2-.095.2-.096.197-.097.197-.1.198-.1.196-.098.194-.1.193-.103.194-.104.19-.103.19-.105.19-.107.19-.106.188-.11.186-.108.187-.11.184-.113.185-.115.183-.114.18-.117.18-.117.18-.12.18-.122.177-.122.176-.124.176-.126.173-.13.173-.13.172-.13.17-.135.17-.136.168-.14.168-.14.166-.142.164-.147.164-.15.162-.15.16-.153.16-.158.158-.16.157-.163.155-.165.153-.17.15-.175.15-.177.148-.18.145-.185.145-.19.14-.193.14-.195.135-.202.133-.207.13-.21.128-.215.124-.218.12-.225.116-.23.11-.232.108-.238.103-.243.098-.248.093-.25.087-.256.08-.26.076-.244.062-.153.037-.135.03-.134.027-.135.026-.135.024-.137.023-.137.02-.14.02-.14.016-.137.014-.14.013-.14.01-.14.01-.14.008-.143.005-.142.003h-.28l-.144-.003-.14-.005-.14-.007-.143-.01-.14-.01-.14-.014-.142-.015-.14-.018-.14-.02-.14-.02-.14-.023-.134-.025-.167-.032-.165-.034-.164-.036-.163-.037-.162-.04-.16-.04-.163-.04-.16-.046-.16-.045-.16-.047-.158-.05-.158-.05-.157-.052-.157-.054-.155-.056-.153-.057-.154-.06-.153-.06-.152-.062-.15-.064-.15-.065-.15-.067-.148-.068-.147-.07-.146-.07-.145-.073-.144-.073-.143-.076-.142-.077-.142-.078-.14-.08-.138-.08-.138-.08-.138-.084-.136-.084-.135-.085-.134-.087-.132-.087-.13-.088-.132-.09-.13-.093-.128-.09-.128-.094-.128-.095-.125-.095-.123-.095-.124-.098-.123-.1-.122-.098-.12-.1-.117-.1-.12-.102-.117-.103-.114-.103-.117-.107-.114-.105-.114-.107-.112-.106-.11-.108-.11-.108-.108-.11-.11-.11-.107-.11-.106-.113-.106-.112-.104-.114-.103-.114-.102-.115-.1-.114-.1-.116-.1-.117-.1-.118-.098-.118-.096-.118-.094-.12-.096-.12-.093-.12-.094-.122-.092-.12-.09-.123-.09-.123-.096-.132-.17-.24-.174-.25-.17-.253-.167-.255-.164-.257-.16-.26-.16-.26-.152-.262-.152-.265-.148-.267-.146-.267-.142-.27-.14-.272-.137-.273-.134-.274-.132-.277-.13-.278-.125-.28-.124-.282-.12-.282-.12-.285-.116-.287-.113-.286-.11-.29-.108-.29-.106-.29-.103-.293-.1-.294-.1-.296-.096-.297-.094-.297-.092-.3-.09-.3-.086-.3-.085-.303-.083-.304-.08-.304-.08-.306-.075-.307-.074-.308-.072-.31-.07-.31-.066-.31-.065-.312-.063-.31-.06-.315-.06-.314-.057-.316-.054-.315-.052-.318-.05-.317-.048-.318-.047-.32-.044-.318-.043-.32-.04-.32-.038-.322-.036-.322-.034-.322-.032-.323-.03-.322-.027-.323-.025-.323-.023-.324-.022-.326-.02-.325-.016-.326-.016-.324-.013-.326-.01-.327-.01-.325-.007-.327-.005-.325-.003-.327v-.655l.003-.327.005-.327.007-.328.01-.327.01-.328.015-.326.015-.326.018-.327.02-.327.02-.326.025-.326.026-.326.028-.326.03-.325.033-.324.034-.325.036-.324.04-.323.04-.323.043-.324.044-.323.047-.322.05-.32.053-.32.054-.322.056-.32.058-.32.062-.318.063-.317.065-.317.067-.317.07-.316.072-.315.073-.315.077-.314.08-.31.08-.312.084-.31.086-.31.088-.308.09-.308.095-.307.095-.304.1-.305.1-.303.103-.3.107-.303.11-.3.11-.3.113-.296.117-.297.12-.294.12-.294.125-.293.127-.29.13-.29.133-.287.135-.286.14-.284.14-.284.146-.282.147-.28.15-.277.156-.277.156-.275.16-.272.164-.27.166-.27.17-.267.167-.257.092-.14.09-.132.09-.13.09-.132.09-.13.093-.13.092-.126.094-.128.096-.128.096-.127.096-.126.097-.124.098-.125.1-.123.1-.125.1-.123.103-.123.103-.122.103-.12.105-.122.105-.12.106-.118.108-.12.108-.116.11-.12.112-.116.11-.114.112-.115.114-.114.114-.112.116-.113.116-.11.117-.112.12-.11.12-.11.12-.107.12-.106.122-.107.123-.106.125-.105.126-.104.125-.102.127-.102.128-.1.13-.1.13-.1.132-.097.134-.097.133-.095.134-.095.136-.093.137-.093.138-.09.137-.09.14-.09.14-.088.142-.087.143-.086.144-.085.144-.084.144-.08.147-.082.146-.08.15-.077.15-.077.15-.076.148-.073.152-.07.154-.073.154-.07.155-.07.154-.065.156-.066.157-.064.16-.064.157-.06.16-.06.16-.06.16-.056.164-.055.16-.054.165-.052.164-.05.165-.05.165-.046.167-.047.167-.044.167-.042.17-.04.168-.04.17-.04.17-.035.17-.034.17-.033.172-.03.172-.03.172-.03.174-.025.173-.025.173-.023.175-.022.176-.02.174-.018.176-.016.176-.015.177-.013.177-.01.177-.01.18-.01.176-.006.18-.004.178-.003.178-.002h.18zM368.89 46.146l.328.027.326.045.323.062.318.08.314.097.307.115.302.13.292.148.285.163.276.18.266.192.254.208.243.22.23.236.217.245.204.258.19.27.173.278.16.29.202.392.573 1.114.89 1.735 1.158 2.26.662 1.294.71 1.39.748 1.47.784 1.54.81 1.598.833 1.644.848 1.676.855 1.698.857 1.707.852 1.702.424.847.42.842.413.833.41.827.403.816.397.806.39.793.38.778.373.763.363.746.352.728.34.707.33.687.315.664.302.64.29.616.273.59.258.563.242.532.117.26.11.25.11.245.102.237.1.23.095.225.092.218.088.214.084.208.08.205.08.204.076.203.074.207.073.215.073.232.068.23.044.162.04.164.04.18.022.108.054.326.037.33.02.33v.33l-.02.33-.035.33-.054.325-.072.322-.09.318-.106.313-.124.306-.14.298-.158.29-.173.283-.188.273-.203.26-.216.25-.23.238-.244.225-.255.21-.267.197-.277.18-.286.167-.295.15-.302.132-.31.116-.315.1-.32.08-.325.065-.327.045-.33.028-.33.01-.33-.01-.33-.026-.328-.045-.325-.063-.32-.08-.316-.1-.31-.115-.303-.132-.295-.15-.288-.164-.277-.18-.266-.195-.257-.21-.243-.224-.23-.235-.22-.25-.202-.26-.19-.272-.172-.28-.158-.292-.14-.298-.126-.306-.108-.312-.09-.32-.005-.018-.027-.07-.035-.09-.044-.112-.05-.128-.06-.14-.066-.16-.072-.17-.078-.18-.085-.193-.09-.205-.095-.215-.1-.22-.22-.484-.235-.516-.254-.547-.273-.58-.287-.61-.303-.635-.317-.66-.33-.687-.342-.707-.354-.728-.364-.746-.273-.558-.02.162-.038.284-.04.282-.04.283-.044.283-.045.283-.045.283-.048.28-.05.282-.053.282-.054.28-.056.28-.058.28-.06.28-.063.28-.065.278-.066.278-.07.277-.07.278-.074.277-.076.276-.078.275-.08.275-.084.274-.086.273-.09.273-.09.272-.094.272-.096.27-.1.27-.102.27-.105.267-.108.267-.112.267-.114.266-.117.264-.12.263-.124.262-.127.26-.13.26-.135.26-.136.258-.14.256-.146.254-.148.254-.152.252-.157.25-.152.24-.087.13-.083.127-.082.12-.084.123-.086.123-.086.12-.087.12-.088.12-.09.12-.09.12-.09.12-.094.117-.093.117-.095.117-.097.12-.098.115-.097.115-.1.114-.1.114-.1.113-.103.114-.103.112-.105.11-.107.112-.105.11-.108.108-.11.11-.11.106-.11.106-.115.107-.113.105-.115.103-.115.103-.12.104-.117.1-.118.1-.12.1-.12.1-.126.098-.123.096-.124.096-.127.095-.126.093-.128.093-.13.093-.128.09-.132.09-.133.088-.133.087-.133.086-.136.085-.138.085-.137.082-.136.08-.14.08-.14.08-.14.077-.144.077-.143.073-.142.074-.146.073-.146.07-.146.07-.148.07-.147.066-.15.066-.15.064-.15.064-.152.06-.152.06-.153.06-.153.058-.155.056-.157.055-.155.052-.157.052-.157.05-.157.05-.16.047-.16.048-.16.044-.16.044-.16.042-.163.04-.163.04-.162.037-.165.036-.163.036-.165.033-.165.03-.166.03-.167.03-.167.028-.167.026-.168.024-.168.024-.168.02-.17.022-.17.02-.17.016-.17.017-.173.014-.17.015-.172.012-.172.01-.182.01-.136.005-.143.005-.142.002h-.144l-.145-.002-.145-.003-.143-.005-.144-.006-.144-.01-.14-.01-.143-.01-.143-.016-.14-.015-.14-.018-.142-.02-.14-.02-.14-.023-.14-.024-.136-.026-.138-.027-.137-.03-.137-.03-.136-.033-.133-.034-.136-.035-.133-.037-.13-.04-.133-.04-.13-.04-.13-.042-.13-.045-.127-.046-.127-.046-.124-.048-.127-.05-.14-.056-.23-.098-.242-.11-.237-.112-.234-.117-.232-.122-.226-.125-.222-.128-.218-.132-.216-.136-.21-.138-.207-.14-.205-.145-.2-.146-.198-.15-.193-.15-.19-.155-.188-.157-.184-.158-.18-.16-.18-.162-.174-.164-.172-.167-.17-.168-.168-.17-.164-.17-.162-.174-.16-.173-.157-.176-.156-.176-.154-.18-.15-.18-.15-.18-.148-.184-.145-.184-.142-.185-.14-.187-.14-.188-.14-.19-.136-.19-.135-.192-.134-.193-.132-.195-.13-.195-.13-.196-.126-.198-.126-.2-.126-.2-.123-.2-.122-.203-.12-.203-.12-.204-.12-.207-.117-.207-.116-.207-.115-.21-.115-.208-.113-.21-.112-.213-.11-.21-.112-.215-.11-.214-.107-.215-.108-.216-.106-.216-.106-.218-.105-.218-.105-.22-.103-.22-.102-.22-.1-.223-.1-.223-.1-.222-.1-.225-.098-.225-.096-.224-.097-.225-.097-.228-.095-.227-.094-.227-.093-.23-.092-.228-.09-.23-.092-.23-.09-.23-.09-.23-.09-.237-.176-.46-.173-.466-.17-.467-.168-.47-.167-.47-.162-.47-.16-.47-.157-.474-.155-.472-.153-.473-.15-.473-.148-.473-.145-.474-.143-.472-.142-.47-.138-.472-.136-.47-.133-.468-.13-.467-.13-.466-.126-.462-.125-.462-.123-.46-.12-.457-.117-.455-.116-.45-.113-.45-.11-.446-.11-.443-.105-.44-.104-.433-.102-.432-.1-.427-.097-.422-.095-.418-.093-.413-.09-.408-.09-.403-.087-.397-.085-.392-.083-.384-.08-.38-.078-.375-.078-.37-.145-.712-.138-.687-.13-.657-.12-.626-.112-.593-.103-.56-.095-.52-.087-.484-.078-.445-.07-.403-.06-.36-.054-.315-.077-.478-.045-.273-.044-.327-.026-.33-.007-.33.01-.33.03-.33.047-.328.064-.324.084-.32.1-.315.117-.31.135-.302.15-.293.167-.286.182-.275.197-.266.212-.255.225-.242.238-.23.25-.216.262-.202.273-.187.282-.172.292-.156.3-.14.306-.123.313-.106.32-.088.322-.07.326-.054.33-.035.33-.017h.33l.33.02.33.04.325.055.323.074.318.092.312.108.306.126.298.142.29.16.28.173.272.19.26.204.25.217.235.232.222.243.21.256.194.266.18.278.163.287.147.296.132.304.114.31.097.316.08.32.063.326.042.26.074.446.047.285.056.33.064.37.072.412.08.45.088.484.096.52.104.552.113.585.12.614.13.643.136.672.07.34.074.35.075.353.077.36.08.367.08.37.083.375.085.38.087.384.088.39.09.39.094.397.094.4.096.403.1.406.1.407.1.41.106.414.106.417.108.418.11.42.11.42.115.42.115.423.118.423.12.426.12.424.123.424.125.424.127.424.127.423.13.422.13.42.134.42.135.418.135.416.138.415.14.412.142.41.142.405.145.403.146.4.147.397.15.396.074.19.074.194.075.192.075.192.076.19.077.19.077.186.077.187.08.184.076.183.078.183.078.182.078.18.08.177.078.176.08.175.078.174.08.173.08.17.08.17.08.166.08.165.08.164.08.16.08.16.08.158.08.155.08.155.082.152.08.15.08.147.08.144.082.144.08.14.08.14.08.136.08.134.08.132.08.13.078.126.08.125.078.123.08.12.077.117.077.114.077.112.077.11.076.104.075.104.075.1.073.098.074.095.073.092.07.088.07.086.07.083.07.08.067.077.067.074.064.07.064.07.062.063.06.062.06.06.057.054.057.053.054.048.054.046.05.043.048.04.045.037.044.034.042.032.04.028.035.026.035.023.03.02.03.018.025.016.024.015.012.006.064-.003.072-.006.07-.005.07-.006.07-.01.066-.006.067-.008.067-.01.065-.008.065-.01.063-.01.06-.01.062-.01.06-.01.06-.012.06-.012.057-.012.055-.013.057-.014.055-.013.054-.014.055-.015.052-.014.053-.014.05-.014.052-.015.05-.016.05-.015.048-.016.05-.018.046-.016.047-.017.047-.02.045-.016.045-.018.045-.02.044-.017.042-.02.043-.018.043-.02.042-.02.043-.02.04-.02.04-.02.042-.02.04-.022.04-.02.04-.023.04-.022.037-.022.04-.024.04-.024.036-.023.037-.023.038-.024.04-.026.035-.024.036-.025.038-.025.037-.026.034-.027.038-.028.035-.026.037-.03.037-.028.034-.027.037-.03.037-.03.036-.03.036-.03.032-.03.036-.032.036-.033.036-.033.033-.03.035-.035.037-.036.033-.032.035-.036.036-.037.033-.034.035-.037.035-.04.034-.037.035-.04.035-.04.035-.04.035-.04.034-.04.035-.042.034-.04.034-.045.035-.044.033-.043.035-.046.034-.045.034-.046.035-.05.035-.047.033-.047.035-.05.034-.052.033-.048.028-.043.074-.115.067-.108.066-.11.066-.114.066-.116.066-.12.065-.12.064-.126.063-.127.064-.13.064-.135.062-.136.062-.14.06-.14.06-.144.06-.148.06-.15.057-.15.057-.156.056-.158.056-.16.054-.162.053-.165.054-.168.052-.17.05-.172.05-.174.048-.178.048-.18.047-.18.044-.183.045-.188.042-.187.043-.19.04-.19.04-.194.04-.194.038-.198.037-.2.036-.2.035-.202.035-.204.032-.206.03-.207.032-.21.028-.212.028-.21.027-.214.026-.214.023-.217.024-.218.023-.218.02-.22.022-.222.02-.22.017-.224.017-.224.016-.225.015-.225.014-.227.013-.23.012-.227.01-.23.01-.23.01-.23.008-.232.007-.233.006-.234.005-.232.004-.234.003-.234.002-.236.002-.236v-.472l-.002-.237-.002-.237-.003-.237-.004-.237-.005-.24-.006-.237-.006-.237-.007-.237-.01-.24-.008-.236-.01-.238-.01-.238-.01-.237-.013-.236-.014-.236-.013-.232-.028-.478-.032-.47-.033-.47-.036-.467-.04-.463-.04-.462-.042-.46-.045-.456-.046-.454-.048-.45-.05-.444-.05-.44-.054-.438-.054-.43-.055-.428-.058-.422-.057-.416-.058-.41-.06-.403-.058-.398-.06-.392-.06-.384-.06-.375-.062-.37-.06-.362-.06-.354-.06-.347-.06-.337-.06-.33-.057-.32-.057-.31-.057-.3-.056-.292-.054-.282-.054-.27-.05-.258-.102-.492-.092-.444-.085-.396-.076-.348-.067-.297-.055-.242-.044-.19-.03-.127-.026-.11-.068-.32-.05-.326-.034-.327-.015-.328.003-.328.02-.33.04-.326.057-.323.074-.32.093-.315.11-.31.124-.304.142-.295.158-.288.173-.28.19-.268.203-.26.217-.246.23-.235.243-.222.254-.208.266-.194.275-.18.285-.162.294-.148.3-.13.31-.116.313-.098.318-.08.323-.063.326-.046.328-.027.328-.01.33.01zm12.27 44.796l.023.107.015.06-.047-.207.01.04zM52.333 58.69l.002-.002-1.013 1.078-3.586 3.945-3.724 4.1-.527.596-3.74 4.237h.002l-2.383 2.7-.76.874-2.397 2.762-2.082 2.398-2.467 1.656-2.823.564-2.83-.53-2.486-1.625-1.657-2.468-.564-2.822.528-2.83 1.626-2.487 2.344-2.082 2.83-2.53.842-.744 2.605-2.345 4.26-3.85.588-.533 4.05-3.76 3.905-3.623 1.065-1.023 2.804-2.688 2.275-2.252 1.36-1.347 1.165-1.206 2.47-2.56.16-.165 2.203-2.37 2.04-2.188.355-.39 2.266-2.504 2.163-2.388 2.103-2.318 1.8-1.982.19-.214 1.846-2.073 1.685-1.89.79-.886.756-.844.712-.794.667-.743.383-.426.225-.25.562-.63.503-.563.46-.51.405-.446.345-.376.166-.177.15-.158.145-.152.11-.113 2.533-1.548 2.842-.44 2.802.65 2.416 1.73 1.55 2.536.444 2.842-.647 2.802-1.728 2.414-.085.07-.087.067-.12.098-.136.113-.35.295-.412.352-.49.424-.56.484-.612.534-.25.22-.425.375.006-.006-.733.65.005-.004-.785.698.004-.003-.836.744.005-.002-.88.785-1.898 1.694.004-.004-2.06 1.843.004-.003-.212.19-1.97 1.804.002-.003-2.302 2.11.002-.002-2.404 2.206v-.002l-2.487 2.285-.38.35-2.14 2.025-2.392 2.263-.166.164-2.54 2.495-1.19 1.167-1.328 1.367-2.225 2.293-2.657 2.826z"/><path d="M230.394 159.844h-.01l.517-.014.517-.015.526-.016.51-.018.523-.018.513-.02.518-.02.52-.02.52-.022.526-.023.517-.025.526-.025.528-.027h-.01l.525-.027.523-.028.524-.03.533-.03h-.01l.527-.03.527-.034.526-.033.527-.034.528-.036.532-.037.524-.037.53-.04.53-.04.53-.04.533-.043.538-.043h-.008l.542-.045h-.01l.54-.045.527-.046.54-.048.063-.006.466-.045.533-.052.544-.055h-.01l.537-.054.545-.057h-.01l.537-.056.538-.057.547-.06h-.01l.54-.06.538-.06.54-.064.55-.066.54-.064.54-.067-.01.002.552-.07-.01.002.553-.07-.01.002.552-.072-.01.002.554-.072h-.01l.555-.072h-.01l.554-.073h-.01l.554-.074h-.01l.547-.075.547-.077.547-.077.547-.078.557-.08h-.01l.558-.083h-.01l.56-.083-.01.002.55-.085.555-.086.553-.087h-.01l.56-.087h-.01l.562-.088.552-.09.553-.09h-.01l.563-.092h-.01l.556-.092.56-.096-.01.002.565-.097h-.01l.563-.096.558-.1-.01.003.566-.1h-.01l.558-.1.557-.1.567-.106.55-.102.567-.107.554-.105.56-.108.566-.11.562-.11h-.01l.57-.112.555-.11.57-.117-.01.002.566-.115.563-.117.573-.12-.01.003.564-.12.57-.12.492-.106.078-.017-.01.002.57-.126.567-.126.567-.127.567-.13.572-.13.57-.13h-.008l.578-.133-.01.002.576-.135.574-.135-.01.003.58-.14-.01.003.58-.138-.008.002.58-.14.567-.14.578-.142-.01.002.578-.144.58-.145-.01.002.584-.147-.01.002.585-.15-.01.003.582-.15.57-.148.584-.152-.01.002.584-.153.577-.154.58-.155-.01.003.588-.16-.01.004.59-.16-.01.002.58-.16.585-.16.574-.16.586-.164.58-.164.583-.165.578-.165.592-.17-.01.002.588-.17.59-.173-.01.003.584-.173.584-.173.59-.176.586-.176.587-.178.592-.18-.01.002.597-.183-.01.002.597-.185-.01.003.59-.184.593-.186.59-.186.59-.188.59-.19.586-.188.598-.194.59-.193.587-.192.6-.198.59-.196.6-.2-.01.002.598-.2.55-.188.044-.015.6-.207-.01.004.606-.21-.01.004.597-.208.597-.21.603-.21.597-.213.595-.212.6-.214.597-.216.605-.22-.01.004.6-.22.608-.223-.01.005.61-.226-.01.003.61-.226.596-.223.606-.228.607-.23-.01.004.61-.23.607-.233-.01.003.614-.236-.01.004.608-.235.605-.236.604-.236.606-.237.607-.24.607-.24.615-.247.605-.243.61-.247-.008.003.618-.252-.01.004.62-.253-.01.003.62-.254-.01.003.616-.255.612-.253.615-.257-.01.004.617-.258.617-.26-.01.004.617-.262.62-.263-.01.004.624-.267-.01.004.617-.265.622-.27-.01.004.625-.272-.01.004.625-.273-.01.004.618-.27.625-.276-.01.005.618-.274.627-.278-.01.004.62-.277.617-.28.63-.284-.01.005.618-.28.19-.088.44-.2.62-.287-.01.004.62-.29.63-.292.62-.29-.008.004.62-.293.632-.3.614-.29.632-.302-.01.005.625-.3.624-.3.634-.306-.01.004.635-.307-.01.005.634-.31-.01.004.636-.31-.01.004.636-.314-.01.005.63-.31.634-.316-.01.005.632-.315.634-.318-.01.005.638-.322-.01.005.64-.323-.01.005.64-.325-.01.005.64-.327-.01.005.64-.328-.01.005.64-.33-.01.005.64-.33.632-.33.633-.33-.01.005.642-.337-.01.005.634-.333.642-.34-.01.005.637-.338.642-.343-.01.005.64-.342.636-.342.64-.346-.01.005.644-.35.64-.347-.01.005.646-.353-.01.005.638-.35.648-.357-.01.005.642-.355.64-.357.64-.357.645-.36-.01.004.65-.365.64-.362-.008.005.642-.365.642-.366.644-.37.644-.368.646-.374-.01.005.654-.377-.01.006.654-.38-.01.004.647-.377.653-.382-.01.006.65-.382.648-.382.65-.385-.01.007.647-.385.656-.392-.01.006.653-.39.652-.394-.01.005.658-.397.65-.394-.01.006.652-.397.65-.398.656-.402-.01.005.66-.406-.01.006.66-.408-.008.005.66-.41-.01.006.657-.41.656-.41.653-.41-.01.006.657-.414.657-.416.51-.324.145-.092.655-.42-.01.007.664-.424-.008.005.664-.426-.01.006.665-.43-.01.006.657-.425.66-.43.658-.43.66-.43-.01.004.66-.433.66-.436.66-.438.66-.44-.008.007.662-.442.663-.444.66-.444-.01.006.663-.446.662-.45.666-.452.662-.45-.01.005.672-.46-.01.007.67-.46.665-.457-.01.006.673-.464-.01.006.673-.466-.01.006.664-.463.673-.47-.01.006.674-.472.667-.47-.01.008.676-.476 2.49-1.083 2.63-.02 2.458.98 1.974 1.926 1.078 2.535.022 2.647-.974 2.444-1.912 1.928-.703.465-.68.448-.706.464-.69.452-.705.46-.69.45-.704.456-.703.455-.677.436-.687.442-.702.45-.676.43-.7.445-.702.444-.674.426-.7.44-.685.428-.7.436-.684.425-.7.432-.67.414-.684.42-.686.42-.707.432-.685.416-.68.413-.696.42-.68.41-.684.407-.15.09-.53.316-.68.407-.693.41-.667.395-.678.4-.69.405-.69.403-.665.388-.69.4-.675.39-.678.39-.675.388-.687.393-.663.378-.686.39-.674.38-.673.378-.685.384-.672.375-.674.374-.67.37-.673.37-.683.375-.66.36-.67.365-.68.37-.68.367-.66.354-.68.364-.667.357-.668.355-.655.346-.678.36-.668.348-.666.347-.665.347-.664.344-.675.348-.664.34-.664.34-.663.337-.663.336-.663.335-.66.333-.663.33-.67.335-.66.327-.65.32-.66.324-.66.32-.668.327-.66.32-.646.31-.668.32-.657.315-.655.313-.646.305-.676.32-.646.3-.654.307-.654.304-.654.303-.663.305-.633.29-.672.307-.652.296-.642.29-.66.297-.64.286-.66.294-.64.283-.66.29-.637.28-.648.283-.658.286-.648.28-.646.276-.457.196-.198.085-.636.272-.644.273-.635.27-.653.274-.634.266-.642.267-.652.27-.632.262-.65.267-.64.26-.632.257-.64.258-.64.257-.65.26-.636.253-.63.25-.646.253-.628.245-.626.244-.637.246-.636.244-.644.247-.634.24-.633.24-.625.235-.642.24-.624.232-.642.237-.63.23-.613.224-.64.233-.632.228-.636.228-.622.222-.62.22-.637.225-.626.22-.626.218-.636.22-.608.21-.634.216-.617.21-.624.21-.624.21-.626.208-.622.207-.615.2-.627.206-.624.203-.62.2-.613.196-.62.198-.045.014-.577.184-.614.194-.62.195-.617.194-.606.188-.618.19-.62.192-.61.185-.623.187-.605.18-.616.185-.614.18-.606.18-.61.177-.612.176-.61.176-.61.174-.62.175-.602.17-.602.17-.608.167-.607.167-.608.166-.615.166-.59.16-.606.16-.604.16-.613.16-.603.16-.598.153-.612.156-.592.15-.606.153-.606.15-.585.146-.61.15-.598.146-.594.144-.598.143-.597.14-.597.142-.597.14-.597.137-.59.135-.595.135-.604.136-.59.132-.597.132-.593.13-.578.126-.6.13-.592.125-.59.126-.586.122-.59.122-.588.12-.59.12-.586.12-.08.015-.503.1-.586.118-.59.117-.59.116-.575.11-.585.113-.584.11-.592.11-.572.108-.582.107-.59.107-.57.102-.592.105-.567.1-.588.1-.57.1-.584.098-.568.095-.586.097-.58.095-.573.092-.57.09-.583.093-.572.09-.573.087-.564.085-.582.087-.563.082-.58.084-.57.082-.57.08-.57.08-.56.077-.566.077-.568.076-.58.076-.564.073-.556.07-.578.073-.563.07-.554.067-.564.068-.572.067-.554.064-.562.064-.57.063-.563.062-.55.06-.56.058-.56.058-.56.058-.566.057-.55.053-.566.055-.547.05-.566.053-.545.05-.554.048-.563.048-.482.04-.072.007-.553.047-.542.046-.56.046-.543.043-.552.044-.548.042-.55.04-.55.04-.558.04-.546.038-.548.037-.535.035-.547.035-.554.034-.546.03-.533.032-.545.03-.543.03-.543.027-.542.026-.542.026-.54.025-.54.024-.54.023-.538.022-.54.02-.547.02-.528.018-.546.018-.526.017-.545.015-.525.014-.535.013-.543.012-.533.01-.523.01-.532.01-.54.008-.53.006-.53.006-.52.005-.54.004-.518.004-.538.002h-1.58l-.525-.003-.525-.004-.524-.005-.523-.005-.533-.006-.512-.007-.522-.01-.52-.008-.434-.01h-.088l-.52-.008-.52-.01-.518-.01-.527-.01-.518-.01-.517-.014-.517-.013-.515-.015-.514-.015-.514-.017-.514-.017-.524-.018-.502-.02-.512-.02-.51-.02-.51-.022-.512-.023-.518-.024-.51-.025-.508-.026-.507-.027-.508-.028-.517-.03-.505-.028-.505-.032-.505-.03-.504-.033-.5-.033-.504-.034-.502-.035-.5-.036-.512-.037-.49-.037-.51-.04-.498-.04-.498-.04-.498-.04-.497-.042-.495-.042-.506-.044-.486-.044-.503-.046-.504-.048-.494-.047-.482-.048-.5-.05-.482-.048-.502-.052-.498-.052-.493-.052-.487-.053-.475-.053-.49-.055-.496-.056-.497-.057-.123-.014-.364-.042-.483-.056-.485-.057-.485-.057-.48-.058-.495-.06-.482-.06-.482-.06-.478-.062-.488-.064-.47-.06-.49-.067-.48-.064-.488-.068-.463-.064-.488-.067-.487-.07-.462-.066-.486-.07-.474-.07-.474-.072-.47-.07-.483-.076-.47-.073-.47-.074-.478-.076-.48-.077-.46-.074-.48-.08-.463-.076-.468-.08-.464-.077-.48-.083-.462-.08-.464-.08-.472-.084-.463-.083-.463-.083-.47-.086-.456-.084-.476-.088-.457-.086-.47-.09-.455-.086-.447-.086-.47-.09-.462-.092-.456-.09-.455-.092-.463-.093-.466-.095-.436-.09-.464-.096-.448-.093-.452-.095-.462-.098-.445-.096-.466-.1-.445-.097-.454-.1-.448-.1-.458-.1-.025-.007-.417-.092-.457-.102-.44-.1-.445-.1-.45-.103-.448-.103-.892-.207-.886-.21-.89-.213-.878-.214-.88-.217-.877-.22-.877-.223-.872-.224-.872-.228-.867-.228-.867-.232-.86-.234-.86-.234-.863-.24-.847-.24-.853-.242-.852-.246-.844-.246-.845-.25-.84-.25-.845-.255-.832-.255-.83-.256-.833-.26-.828-.262-.832-.265-.814-.264-.826-.27-.817-.268-.816-.272-.563-.19-.244-.08-.815-.275-.798-.27-.81-.278-.807-.28-.793-.278-.796-.282-.793-.283-.796-.288-.792-.288-.786-.288-.787-.292-.773-.29-.776-.29-.774-.295-.776-.3-.767-.296-.766-.298-.767-.302-.762-.302-.756-.303-.757-.306-.76-.31-.746-.305-.747-.31-.745-.31-.74-.31-.74-.313-.734-.313-.738-.318-.727-.314-.733-.32-.723-.318-.722-.32-.717-.318-.71-.32-.583-.263-.14-.063-.71-.32-.712-.326-.7-.32-.708-.327-.697-.325-.702-.328-.69-.326-.685-.325-.697-.333-.69-.332-.675-.327-.686-.334-.68-.334-.67-.33-.67-.333-.665-.333-.67-.337-.668-.34-.663-.336-.652-.334-.657-.34-.652-.338-.65-.34-.64-.335-.642-.34-.646-.343-.633-.338-.64-.344-.618-.335-.634-.344-.625-.342-.626-.344-.614-.34-.62-.345-.614-.342-.61-.343-.61-.346-.612-.35-.592-.337-.597-.343-.594-.343-.595-.347-.588-.343-.59-.346-.59-.347-.57-.338-.582-.348-.57-.342-.567-.34-.58-.35-.56-.343-.56-.342-.56-.345-.567-.35-.54-.335-.546-.34-.557-.35-.54-.34-.542-.342-.542-.345-.536-.342-.526-.336-.53-.34-.52-.338-.53-.346-.514-.336-.516-.34-.513-.337-.504-.333-.522-.348-.505-.338-.494-.332-.496-.335-.494-.333-.484-.33-.496-.338-.484-.333-.49-.338-.47-.326-.388-.27-.096-.066-.472-.327-.477-.332-.456-.32-.47-.33-.453-.32-.464-.33-.452-.32-.458-.328-.438-.314-.45-.325-.44-.316-.435-.316-.432-.315-.437-.32-.435-.32-.422-.312-.417-.31-.415-.307-.415-.31-.425-.318-.405-.305-.402-.303-.407-.31-.397-.3-.4-.306-.397-.304-.386-.296-.38-.294-.39-.3-.383-.3-.37-.29-.386-.302-.357-.28-.38-.298-.356-.283-.363-.29-.36-.286-.7-.563-.693-.558-.673-.546-.668-.548-.656-.54-.63-.523-.634-.53-.603-.506-.607-.513-.575-.49-.577-.493-.558-.48-.544-.473-.53-.463-.52-.457-.503-.444-.488-.434-.473-.424-.46-.413-.456-.414-.425-.388-.428-.392-.402-.37-.394-.365-.375-.348-.37-.347-.35-.33-.337-.32-.327-.31-.307-.296-.292-.283-.277-.27-.27-.262-.255-.25-.234-.23-.23-.23-.4-.398-.345-.35-.287-.29-.23-.237-.174-.18-.134-.142-1.632-2.718-.45-3.036.717-2.986 1.866-2.563 2.718-1.63 3.037-.45 2.986.716 2.563 1.866.096.11.11.125.167.19.222.246.274.302.34.37.185.2.19.203.222.237.222.236.236.25.254.266.262.273.286.296.288.296.307.314.314.32.337.343.345.347.362.364.37.37.38.374.41.405.404.395.427.415.44.425.45.434.454.434.482.458.488.462.502.47.52.484.52.483.545.5.556.51.56.507.585.528.588.527.605.54.613.54.635.558.647.565.322.28.326.282.33.283.343.296-.01-.01.35.3-.01-.01.34.292.355.3-.01-.007.35.296.358.304-.01-.01.358.302.362.304.356.297.368.306.367.304-.01-.008.38.312.373.307-.01-.01.384.316.374.305.386.316.38.307.39.317.387.31.398.32.4.32.404.32-.01-.01.408.325.408.32.412.326.414.325-.01-.01.42.33.422.327.424.328.418.323.435.333-.012-.008.44.334.434.332.43.326.09.067.36.27.435.327.447.334.457.34.454.335-.012-.008.463.34.456.335.468.342-.01-.008.467.34.47.34.47.34.472.337.477.342.485.345.482.342.486.34.485.342.49.344.5.347.5.346-.01-.01.505.35.502.345.51.348.515.35-.013-.01.523.355.514.346.522.35-.013-.008.53.353.522.346.53.35.525.346.53.347.54.35.544.352.544.35.54.347.55.352.553.35-.012-.007.556.35.566.357.552.346.567.352.557.346.578.356-.013-.008.583.357.574.352-.014-.008.583.353.58.35.576.347.593.353.583.346.59.35.598.35.6.35.6.347.6.347.604.347.607.347.61.346.613.346.615.345.625.348.62.344.63.346.622.34.64.35.627.34.637.34.635.342.643.34.652.345.645.34.646.336.658.34.66.34.654.334.658.334.667.337.67.335.67.334.13.064.545.268.678.33.675.328.684.33.678.324.69.327.69.326.69.324.695.322.702.324.705.323.702.32.703.316.713.318.71.316.71.314.722.315.717.31.725.314.733.313.726.307.728.307.73.305.744.306.742.304.742.303.746.3.75.3.745.296.753.296.756.294.758.293.756.29.77.292.76.286.775.29.232.085.54.198.768.28.783.28.78.277.782.276.78.272.792.274.79.27.796.27.8.267.798.264.805.264.798.26.806.258.81.257.81.254.817.254.817.252.822.25.82.245.826.245.826.242.83.24.832.238.84.237.835.233.837.23.843.23.847.226.85.225.853.222.425.11.424.11.433.11-.01-.003.43.11.433.108.41.102.024.006-.01-.002.435.106.437.105-.01-.003.436.105.435.104.436.103-.01-.003.44.103.437.102h-.01l.44.1.438.1.44.1.436.1-.008-.002.447.1-.01-.002.447.1-.01-.003.445.098.442.097.436.095.446.096h-.01l.45.095-.008-.002.446.095.445.093.444.094.44.09.45.093-.01-.002.447.09.45.09.447.09.45.088h-.008l.45.087.45.087.452.087-.01-.002.453.086.452.085.456.085h-.01l.453.082.458.084.455.082h-.01l.462.08h-.01l.456.08.46.08.457.08h-.008l.464.08-.008-.002.46.078.46.077.46.076h-.01l.468.075h-.008l.463.075.46.075.464.073h-.01l.462.072.463.072.464.07.465.072-.008-.003.463.07.466.07.47.068h-.008l.473.067.468.066h-.01l.476.066h-.01l.473.064.47.065h-.008l.476.063h-.01l.353.046.117.015.472.06.47.06.476.058h-.01l.48.057h-.007l.48.056h-.01l.482.056h-.01l.48.054.474.055.478.053h-.01l.485.052h-.01l.485.052h-.01l.48.05.48.05.478.05.48.048.48.047h-.01l.48.046.48.047.484.045.484.045.483.043.484.043h-.01l.493.04h-.01l.485.04.487.04.484.04.488.04.49.036h-.01l.495.036.487.035h-.01l.49.035.496.035h-.01l.5.033h-.01l.493.03.49.033.494.03.49.03.496.028h-.01l.5.028.495.026.495.026h-.01l.497.025.495.023.496.023.498.022.498.022.497.02.5.02.498.018.5.018.5.016h-.008l.51.016.5.015h-.01l.503.014.503.013.085.002.418.007.504.006.505.007.51.006.5.004.506.004.506.003.507.002h.513-.01 1.024l.51-.002h-.008l.515-.003.51-.003.51-.005.513-.007.512-.007.514-.008h-.01l.522-.01.514-.01.514-.01h-.01l.525-.012h-.01l.524-.012z"/><path d="M31.615 13.4l2.148 1.778 1.283 2.348.204 2.668-3.97 21.55-3.307 18.74-1.502 8.97-1.216 7.79-1.017 7.213-.984 7.54-1.816 15.182-1.525 13.85-1.128 10.76-1.01 2.796-1.943 2.124-2.593 1.246-2.967.16-2.795-1.01-2.124-1.943-1.245-2.594-.16-2.968 2.028-10.628 2.54-13.702 2.647-15.06 1.235-7.502 1.11-7.198 1.084-7.81 1.15-9.022 2.247-18.897 2.424-21.78.967-2.493 1.906-1.88 2.57-1.08 2.958-.098 2.805.95zM390.853.696l2.068 1.4 1.312 2.126 5.287 17.722 4.716 15.35 2.325 7.314 2.094 6.317 2.03 5.8 2.186 6.033 4.542 12.078 4.254 10.964 3.352 8.495.357 2.75-.704 2.593-1.618 2.143-2.394 1.402-2.75.357-2.593-.705-2.143-1.62-1.4-2.393-2.55-8.77-3.347-11.273-3.8-12.332-1.963-6.11-1.947-5.828-2.21-6.277-2.64-7.206L387.652 26l-6.666-17.25-.265-2.483.777-2.373 1.67-1.995L385.58.55v.002l2.732-.41 2.54.554zM198.45 25.707l3.14.336 2.65 1.35 1.88 2.146.833 2.728.615 19.71.684 17.108.412 8.172.45 7.08.53 6.532.636 6.81 1.455 13.68 1.465 12.455 1.198 9.664-.402 3.143-1.528 2.663-2.41 1.9-3.052.858-3.144-.402-2.663-1.527-1.902-2.41-.857-3.053-.23-9.734-.372-12.535-.562-13.746-.366-6.83-.43-6.54-.593-7.07-.788-8.143-1.828-17.025-2.275-19.588.425-2.822 1.547-2.4 2.423-1.72 3.056-.793z"/></svg>
